<?xml version="1.0" encoding="utf-8"?>
<!-- Generator: Adobe Illustrator 16.0.0, SVG Export Plug-In . SVG Version: 6.00 Build 0)  -->
<!DOCTYPE svg PUBLIC "-//W3C//DTD SVG 1.1//EN" "http://www.w3.org/Graphics/SVG/1.1/DTD/svg11.dtd">
<svg version="1.1" id="Layer_1" xmlns="http://www.w3.org/2000/svg" xmlns:xlink="http://www.w3.org/1999/xlink" x="0px" y="0px"
	 width="480px" height="140px" viewBox="0 0 480 140" enable-background="new 0 0 480 140" xml:space="preserve">
<g id="Calque_1" display="none">
	<rect x="139.6" y="28.4" display="inline" fill="#1A1A18" width="200.3" height="80.3"/>
	<g display="inline">
		<path fill="#FFFFFF" d="M226.9,76.6c-4.5-3.1-2.8-9.6-5.8-13.5c-1-1.3-3.7-1.3-5.3-0.5c-3.1,1.7-4.2,6.2-5.4,9.6
			c-1.2-3.4,0-6.8-0.8-10.1c-0.1-0.5-4.7,0-4.7,0.6c-0.1,4.6-1.4,8.899-3,13.2c-0.7,1.5-3.2,5.3-4.3,3.899
			c-3.1-3.899-2.7-19.6-2.7-21.4c0-0.6-5-0.3-4.9,0.4c0.4,4.3,0,14.8-1.1,17.9c-1.1,3.2-4.7,4.899-6.6,4.1c-1.5-0.6-1.8-1.5-2.3-2.7
			c-2.5-6.199,0.8-11.899,4.1-17c3.6-5.5,9.7-7.1,15.9-7.2c3.7,0.2,7.8,2.8,9.1,6.3c0.3,0.8,2.9-1.6,4.1-3c1.2-1.2-0.3-2.5-1.5-3.3
			c-6.4-3.1-14.5-4-21.6-1.4c-7.4,3-15.6,9.9-16.3,18.3c-0.7,4.3,0.1,9.2,3.7,12c2.5,1.7,6.6,2.2,8.8,1.101
			c2.2-1.2,3.8-3.101,5.1-6.101c0.3,0.8,0.7,2,1,2.601c2,3.1,4.4,3.1,7.2,2.8c4.4-1.4,5.7-6.9,7-10.4c1,3.3,0.2,9.8,0.4,10.8
			c0.1,0.301,0.6,0.4,0.6,0.4c2.8-0.5,3.9-0.5,4.5-0.8c0.5-0.3,0.6-5.5,2.2-10.4c0.7-2.2,1.9-5.9,2.7-5.6c0.5,0.2,0.9,7.3,3.2,10.3
			c1.1,1.5,2.7,2.1,4.5,1.7C225.6,78.7,227.2,77.8,226.9,76.6z M253,54.5c1.2,0,5.1-4.7,4.2-7.3c-0.7-2-5.2-1.2-3.7,1
			C254.8,50.1,251.6,54.6,253,54.5z M305.5,77.3c-1.1-1.8-3.2-3.1-4.3-2.399c-1.8,1.1,1.6,3.399-0.3,3.399
			c-1.9-0.1-8.5-1.899-9.9-3.8c-0.5-0.6,11.3-3.7,12.7-8.8c0.6-2.3,0.1-4-1.7-5.1c-8-4-23.3-7.2-24.7-7c-1.399,0.2-1.5,0.9-1.1,1.7
			c1.3,2.5,0.1,1.5-2,4.2c-2.101,2.8-3.2,7.8-1.101,11.8c1.101,2.101,3,3.2,6,3.101c3-0.101,5-1.4,6.101-5.101
			c1.1-3.7,0.2-7.9-2.7-10.9c6.5,0.4,17.3,3,17.1,5.9c-0.3,2.8-9.5,5.3-11.6,6.8c-2.1,1.5-3.2,2.5-1.5,4.801
			c1.7,2.3,12,7.199,17,5.6C305.7,80.9,306.6,79.1,305.5,77.3z M281.1,67.6c-0.699,3.4-2.399,5.6-4.6,1.4c-2.1-4.1,0.6-9.7,2.6-9.7
			C280.3,59.3,281.7,64.2,281.1,67.6z M268.5,45.7c-0.8-1.6-5.7-1.4-5.2,0.4c0.601,1.8,0.9,17.5-1.1,20.8c-1,1.8-5,8.5-8.3,7.9
			c-2.2-0.399-2.5-7-2.5-7c4,0.1,6.3-2.1,6.8-4.8c0.2-1.6,0.399-3.7-2.3-4.3c-2.7-0.6-4.4,0.7-5.9,2c-1.5,1.3-2.5,6.3-2.2,8.3
			c0.2,1.1-7.3,4.2-8.2,4.5c0-1-0.1-9.9,0-12c3.7,1.4,2.4,0.2,2.3-2.8c0-1.1-7-3.1-10.8-0.2c-3.2,2.5-5.3,8.6-3.4,12.7
			c1,2.3,2.9,3,4.4,2.8c1.6-0.3,2.9-1.7,3.5-2.9c0.3,1.2,0.1,1.801,0.3,3.5c0.2,1.601-14.3,4.2-11.4,10.4c2.5,5.3,7,7.3,11.8,7.2
			c5.5,0,4-9.101,3.4-15c2.7-1.101,5.2-2.2,7.8-3.5c0.8-0.4,0.6,0.899,1.2,1.899c1.399,2.2,3.7,2.801,6.3,2.4
			c3.8-0.8,7.5-5.8,9.1-9.2c0,2.2,0,5.5,2.801,7.2c1.6,1,5,0.2,4.399-1.2C266,62.6,269.1,46.9,268.5,45.7z M255.1,60.2
			c0.9,0.4,0.7,2.1-0.5,3.5c-0.699,0.8-2.5,1.9-3,1.5C251.1,64.8,252.7,59.2,255.1,60.2z M232.6,70.2c-2,0.899-3-1.1-2.3-4.5
			c0.7-3.3,4.7-4.5,5.2-4.1C235.8,61.9,235.7,68.9,232.6,70.2z M236.4,88c-1.5,1-4.9-1.2-5.8-1.8c-0.9-0.601-2.1-1.601-1.9-3.2
			c0.1-1.5,5.2-3.4,7.8-4.4C236.5,78.7,237.3,87.5,236.4,88z"/>
		<path fill="#FFFFFF" d="M250.7,85.3L250.7,85.3v7H249.6v-7.8h1.801l3.399,6.9l3.4-6.9h1.8v7.8h-1.1v-7l0,0l-3.5,7h-1.2L250.7,85.3
			z"/>
		<path fill="#FFFFFF" d="M267.7,84.3c3.3,0,4.399,2.2,4.399,4.101c0,1.899-1.1,4.1-4.399,4.1s-4.4-2.2-4.4-4.1
			C263.3,86.6,264.5,84.3,267.7,84.3z M267.7,91.7c1.899,0,3.2-1.3,3.2-3.2s-1.301-3.2-3.2-3.2c-1.9,0-3.2,1.3-3.2,3.2
			S265.8,91.7,267.7,91.7z"/>
		<path fill="#FFFFFF" d="M275.3,84.5h3c3.5,0,4.7,1.5,4.7,4c0,2.4-1.5,3.8-4.5,3.8h-3.2V84.5z M276.5,91.5h2.1
			c2.601,0,3.301-1.5,3.301-3c0-2-0.9-3-3.5-3H276.6v6H276.5z"/>
		<path fill="#FFFFFF" d="M286.3,84.5h5.8v0.9H287.4v2.5h4.399V88.8H287.4v2.7h4.8v0.9h-6v-7.9H286.3z"/>
	</g>
</g>
<g id="Calque_2">
	<g>
		<path fill="#FFFFFF" d="M237.7,33.2h9.1c0.9,0.4,0.4,1.4,0.4,1.8c-5,0.4-9,0-14,0.9c-0.5-0.5-0.5-1.4-0.5-2.3s0.9-0.4,1.4-0.4
			c0.9,0.4,2.2-0.5,3.6,0.4V33.2z"/>
		<path fill="#FFFFFF" d="M257.9,33.2h9.1c0.9,0.4,0.4,1.4,0.4,1.8c-5,0.4-9,0-14,0.9c-0.5-0.5-0.5-1.4-0.5-2.3s0.899-0.4,1.399-0.4
			c0.9,0.4,2.2-0.5,3.601,0.4V33.2z"/>
		<path fill="#FFFFFF" d="M278.2,33.2h9.1c0.9,0.4,0.4,1.4,0.4,1.8c-5,0.4-9,0-14,0.9c-0.5-0.5-0.5-1.4-0.5-2.3s0.899-0.4,1.399-0.4
			c0.9,0.4,2.2-0.5,3.601,0.4V33.2z"/>
		<path fill="#FFFFFF" d="M298.4,33.2h9.1c0.9,0.4,0.4,1.4,0.4,1.8c-5,0.4-9,0-14,0.9c-0.5-0.5-0.5-1.4-0.5-2.3s0.899-0.4,1.399-0.4
			c0.9,0.4,2.2-0.5,3.601,0.4V33.2z"/>
		<path fill="#FFFFFF" d="M318.7,33.2h9.1c0.9,0.4,0.4,1.4,0.4,1.8c-5,0.4-9,0-14,0.9c-0.5-0.5-0.5-1.4-0.5-2.3s0.899-0.4,1.399-0.4
			c0.9,0.4,2.2-0.5,3.601,0.4V33.2z"/>
		<path fill="#FFFFFF" d="M338.9,33.2h9.1c0.9,0.4,0.4,1.4,0.4,1.8c-5,0.4-9,0-14,0.9c-0.5-0.5-0.5-1.4-0.5-2.3s0.899-0.4,1.399-0.4
			c0.9,0.4,2.2-0.5,3.601,0.4V33.2z"/>
		<path fill="#FFFFFF" d="M359.1,33.2h9.101c0.899,0.4,0.399,1.4,0.399,1.8c-5,0.4-9,0-14,0.9c-0.5-0.5-0.5-1.4-0.5-2.3
			s0.9-0.4,1.4-0.4c0.9,0.4,2.2-0.5,3.6,0.4V33.2z"/>
		<path fill="#FFFFFF" d="M379.4,33.2h9.1c0.9,0.4,0.4,1.4,0.4,1.8c-5,0.4-9,0-14,0.9c-0.5-0.5-0.5-1.4-0.5-2.3s0.899-0.4,1.399-0.4
			c0.9,0.4,2.2-0.5,3.601,0.4V33.2z"/>
		<path fill="#FFFFFF" d="M399.6,33.2h9.101c0.899,0.4,0.399,1.4,0.399,1.8c-5,0.4-9,0-14,0.9c-0.5-0.5-0.5-1.4-0.5-2.3
			s0.9-0.4,1.4-0.4c0.9,0.4,2.2-0.5,3.6,0.4V33.2z"/>
		<path fill="#FFFFFF" d="M419.9,33.2h9.1c0.9,0.4,0.4,1.4,0.4,1.8c-5,0.4-9,0-14,0.9c-0.5-0.5-0.5-1.4-0.5-2.3s0.899-0.4,1.399-0.4
			c0.9,0.4,2.2-0.5,3.601,0.4V33.2z"/>
		<path fill="#FFFFFF" d="M440.1,33.2h9.101c0.899,0.4,0.399,1.4,0.399,1.8c-5,0.4-9,0-14,0.9c-0.5-0.5-0.5-1.4-0.5-2.3
			s0.9-0.4,1.4-0.4c0.9,0.4,2.2-0.5,3.6,0.4V33.2z"/>
		<path fill="#FFFFFF" d="M460.4,33.2h9.1c0.9,0.4,0.4,1.4,0.4,1.8c-5,0.4-9,0-14,0.9c-0.5-0.5-0.5-1.4-0.5-2.3s0.899-0.4,1.399-0.4
			c0.9,0.4,2.2-0.5,3.601,0.4V33.2z"/>
		<path fill="#FFFFFF" d="M15,74.8h9.1c0.9,0.4,0.4,1.4,0.4,1.8c-5,0.4-9,0-14,0.9C10,77,10,76.1,10,75.2c0-0.9,0.9-0.4,1.4-0.4
			c0.9,0.4,2.2-0.5,3.6,0.4V74.8z"/>
		<path fill="#FFFFFF" d="M35.2,74.8h9.1c0.9,0.4,0.4,1.4,0.4,1.8c-5,0.4-9,0-14,0.9c-0.5-0.5-0.5-1.4-0.5-2.3
			c0-0.9,0.9-0.4,1.4-0.4c0.9,0.4,2.2-0.5,3.6,0.4V74.8z"/>
		<path fill="#FFFFFF" d="M55.5,74.8h9.1c0.9,0.4,0.4,1.4,0.4,1.8c-5,0.4-9,0-14,0.9c-0.5-0.5-0.5-1.4-0.5-2.3
			c0-0.9,0.9-0.4,1.4-0.4c0.9,0.4,2.2-0.5,3.6,0.4V74.8z"/>
		<path fill="#FFFFFF" d="M75.7,74.8h9.1c0.9,0.4,0.4,1.4,0.4,1.8c-5,0.4-9,0-14,0.9c-0.5-0.5-0.5-1.4-0.5-2.3
			c0-0.9,0.9-0.4,1.4-0.4c0.9,0.4,2.2-0.5,3.6,0.4V74.8z"/>
		<path fill="#FFFFFF" d="M96,74.8h9.1c0.9,0.4,0.4,1.4,0.4,1.8c-5,0.4-9,0-14,0.9C91,77,91,76.1,91,75.2c0-0.9,0.9-0.4,1.4-0.4
			c0.9,0.4,2.2-0.5,3.6,0.4V74.8z"/>
		<path fill="#FFFFFF" d="M116.2,74.8h9.1c0.9,0.4,0.4,1.4,0.4,1.8c-5,0.4-9,0-14,0.9c-0.5-0.5-0.5-1.4-0.5-2.3
			c0-0.9,0.9-0.4,1.4-0.4c0.9,0.4,2.2-0.5,3.6,0.4V74.8z"/>
		<path fill="#FFFFFF" d="M136.5,74.8h9.1c0.9,0.4,0.4,1.4,0.4,1.8c-5,0.4-9,0-14,0.9c-0.5-0.5-0.5-1.4-0.5-2.3
			c0-0.9,0.9-0.4,1.4-0.4c0.9,0.4,2.2-0.5,3.6,0.4V74.8z"/>
		<path fill="#FFFFFF" d="M156.7,74.8h9.1c0.9,0.4,0.4,1.4,0.4,1.8c-5,0.4-9,0-14,0.9c-0.5-0.5-0.5-1.4-0.5-2.3
			c0-0.9,0.9-0.4,1.4-0.4c0.9,0.4,2.2-0.5,3.6,0.4V74.8z"/>
		<path fill="#FFFFFF" d="M176.9,74.8h9.1c0.9,0.4,0.4,1.4,0.4,1.8c-5,0.4-9,0-14,0.9c-0.5-0.5-0.5-1.4-0.5-2.3
			c0-0.9,0.9-0.4,1.4-0.4c0.9,0.4,2.2-0.5,3.6,0.4V74.8z"/>
		<path fill="#FFFFFF" d="M197.2,74.8h9.1c0.9,0.4,0.4,1.4,0.4,1.8c-5,0.4-9,0-14,0.9c-0.5-0.5-0.5-1.4-0.5-2.3
			c0-0.9,0.9-0.4,1.4-0.4c0.9,0.4,2.2-0.5,3.6,0.4V74.8z"/>
		<path fill="#FFFFFF" d="M217.4,74.8h9.1c0.9,0.4,0.4,1.4,0.4,1.8c-5,0.4-9,0-14,0.9c-0.5-0.5-0.5-1.4-0.5-2.3
			c0-0.9,0.9-0.4,1.4-0.4c0.9,0.4,2.2-0.5,3.6,0.4V74.8z"/>
		<path fill="#FFFFFF" d="M237.7,74.8h9.1c0.9,0.4,0.4,1.4,0.4,1.8c-5,0.4-9,0-14,0.9c-0.5-0.5-0.5-1.4-0.5-2.3
			c0-0.9,0.9-0.4,1.4-0.4c0.9,0.4,2.2-0.5,3.6,0.4V74.8z"/>
		<path fill="#FFFFFF" d="M257.9,74.8h9.1c0.9,0.4,0.4,1.4,0.4,1.8c-5,0.4-9,0-14,0.9c-0.5-0.5-0.5-1.4-0.5-2.3
			c0-0.9,0.899-0.4,1.399-0.4c0.9,0.4,2.2-0.5,3.601,0.4V74.8z"/>
		<path fill="#FFFFFF" d="M278.2,74.8h9.1c0.9,0.4,0.4,1.4,0.4,1.8c-5,0.4-9,0-14,0.9c-0.5-0.5-0.5-1.4-0.5-2.3
			c0-0.9,0.899-0.4,1.399-0.4c0.9,0.4,2.2-0.5,3.601,0.4V74.8z"/>
		<path fill="#FFFFFF" d="M298.4,74.8h9.1c0.9,0.4,0.4,1.4,0.4,1.8c-5,0.4-9,0-14,0.9c-0.5-0.5-0.5-1.4-0.5-2.3
			c0-0.9,0.899-0.4,1.399-0.4c0.9,0.4,2.2-0.5,3.601,0.4V74.8z"/>
		<path fill="#FFFFFF" d="M318.7,74.8h9.1c0.9,0.4,0.4,1.4,0.4,1.8c-5,0.4-9,0-14,0.9c-0.5-0.5-0.5-1.4-0.5-2.3
			c0-0.9,0.899-0.4,1.399-0.4c0.9,0.4,2.2-0.5,3.601,0.4V74.8z"/>
		<path fill="#FFFFFF" d="M338.9,74.8h9.1c0.9,0.4,0.4,1.4,0.4,1.8c-5,0.4-9,0-14,0.9c-0.5-0.5-0.5-1.4-0.5-2.3
			c0-0.9,0.899-0.4,1.399-0.4c0.9,0.4,2.2-0.5,3.601,0.4V74.8z"/>
		<path fill="#FFFFFF" d="M359.1,74.8h9.101c0.899,0.4,0.399,1.4,0.399,1.8c-5,0.4-9,0-14,0.9c-0.5-0.5-0.5-1.4-0.5-2.3
			c0-0.9,0.9-0.4,1.4-0.4c0.9,0.4,2.2-0.5,3.6,0.4V74.8z"/>
		<path fill="#FFFFFF" d="M379.4,74.8h9.1c0.9,0.4,0.4,1.4,0.4,1.8c-5,0.4-9,0-14,0.9c-0.5-0.5-0.5-1.4-0.5-2.3
			c0-0.9,0.899-0.4,1.399-0.4c0.9,0.4,2.2-0.5,3.601,0.4V74.8z"/>
		<path fill="#FFFFFF" d="M399.6,74.8h9.101c0.899,0.4,0.399,1.4,0.399,1.8c-5,0.4-9,0-14,0.9c-0.5-0.5-0.5-1.4-0.5-2.3
			c0-0.9,0.9-0.4,1.4-0.4c0.9,0.4,2.2-0.5,3.6,0.4V74.8z"/>
		<path fill="#FFFFFF" d="M419.9,74.8h9.1c0.9,0.4,0.4,1.4,0.4,1.8c-5,0.4-9,0-14,0.9c-0.5-0.5-0.5-1.4-0.5-2.3
			c0-0.9,0.899-0.4,1.399-0.4c0.9,0.4,2.2-0.5,3.601,0.4V74.8z"/>
		<path fill="#FFFFFF" d="M440.1,74.8h9.101c0.899,0.4,0.399,1.4,0.399,1.8c-5,0.4-9,0-14,0.9c-0.5-0.5-0.5-1.4-0.5-2.3
			c0-0.9,0.9-0.4,1.4-0.4c0.9,0.4,2.2-0.5,3.6,0.4V74.8z"/>
		<path fill="#FFFFFF" d="M460.4,74.8h9.1c0.9,0.4,0.4,1.4,0.4,1.8c-5,0.4-9,0-14,0.9c-0.5-0.5-0.5-1.4-0.5-2.3
			c0-0.9,0.899-0.4,1.399-0.4c0.9,0.4,2.2-0.5,3.601,0.4V74.8z"/>
		<path fill="#FFFFFF" d="M15,116.4h9.1c0.9,0.399,0.4,1.399,0.4,1.8c-5,0.399-9,0-14,0.899c-0.5-0.5-0.5-1.399-0.5-2.3
			c0-0.899,0.9-0.399,1.4-0.399c0.9,0.399,2.2-0.5,3.6,0.399V116.4z"/>
		<path fill="#FFFFFF" d="M35.2,116.4h9.1c0.9,0.399,0.4,1.399,0.4,1.8c-5,0.399-9,0-14,0.899c-0.5-0.5-0.5-1.399-0.5-2.3
			c0-0.899,0.9-0.399,1.4-0.399c0.9,0.399,2.2-0.5,3.6,0.399V116.4z"/>
		<path fill="#FFFFFF" d="M55.5,116.4h9.1c0.9,0.399,0.4,1.399,0.4,1.8c-5,0.399-9,0-14,0.899c-0.5-0.5-0.5-1.399-0.5-2.3
			c0-0.899,0.9-0.399,1.4-0.399c0.9,0.399,2.2-0.5,3.6,0.399V116.4z"/>
		<path fill="#FFFFFF" d="M75.7,116.4h9.1c0.9,0.399,0.4,1.399,0.4,1.8c-5,0.399-9,0-14,0.899c-0.5-0.5-0.5-1.399-0.5-2.3
			c0-0.899,0.9-0.399,1.4-0.399c0.9,0.399,2.2-0.5,3.6,0.399V116.4z"/>
		<path fill="#FFFFFF" d="M96,116.4h9.1c0.9,0.399,0.4,1.399,0.4,1.8c-5,0.399-9,0-14,0.899c-0.5-0.5-0.5-1.399-0.5-2.3
			c0-0.899,0.9-0.399,1.4-0.399c0.9,0.399,2.2-0.5,3.6,0.399V116.4z"/>
		<path fill="#FFFFFF" d="M116.2,116.4h9.1c0.9,0.399,0.4,1.399,0.4,1.8c-5,0.399-9,0-14,0.899c-0.5-0.5-0.5-1.399-0.5-2.3
			c0-0.899,0.9-0.399,1.4-0.399c0.9,0.399,2.2-0.5,3.6,0.399V116.4z"/>
		<path fill="#FFFFFF" d="M136.5,116.4h9.1c0.9,0.399,0.4,1.399,0.4,1.8c-5,0.399-9,0-14,0.899c-0.5-0.5-0.5-1.399-0.5-2.3
			c0-0.899,0.9-0.399,1.4-0.399c0.9,0.399,2.2-0.5,3.6,0.399V116.4z"/>
		<path fill="#FFFFFF" d="M156.7,116.4h9.1c0.9,0.399,0.4,1.399,0.4,1.8c-5,0.399-9,0-14,0.899c-0.5-0.5-0.5-1.399-0.5-2.3
			c0-0.899,0.9-0.399,1.4-0.399c0.9,0.399,2.2-0.5,3.6,0.399V116.4z"/>
		<path fill="#FFFFFF" d="M176.9,116.4h9.1c0.9,0.399,0.4,1.399,0.4,1.8c-5,0.399-9,0-14,0.899c-0.5-0.5-0.5-1.399-0.5-2.3
			c0-0.899,0.9-0.399,1.4-0.399c0.9,0.399,2.2-0.5,3.6,0.399V116.4z"/>
		<path fill="#FFFFFF" d="M197.2,116.4h9.1c0.9,0.399,0.4,1.399,0.4,1.8c-5,0.399-9,0-14,0.899c-0.5-0.5-0.5-1.399-0.5-2.3
			c0-0.899,0.9-0.399,1.4-0.399c0.9,0.399,2.2-0.5,3.6,0.399V116.4z"/>
		<path fill="#FFFFFF" d="M217.4,116.4h9.1c0.9,0.399,0.4,1.399,0.4,1.8c-5,0.399-9,0-14,0.899c-0.5-0.5-0.5-1.399-0.5-2.3
			c0-0.899,0.9-0.399,1.4-0.399c0.9,0.399,2.2-0.5,3.6,0.399V116.4z"/>
		<path fill="#FFFFFF" d="M237.7,116.4h9.1c0.9,0.399,0.4,1.399,0.4,1.8c-5,0.399-9,0-14,0.899c-0.5-0.5-0.5-1.399-0.5-2.3
			c0-0.899,0.9-0.399,1.4-0.399c0.9,0.399,2.2-0.5,3.6,0.399V116.4z"/>
		<path fill="#FFFFFF" d="M175.9,33.7h9.1c0.9,0.4,0.4,1.4,0.4,1.8c-5,0.4-9,0-14,0.9c-0.5-0.5-0.5-1.4-0.5-2.3s0.9-0.4,1.4-0.4
			c0.9,0.4,2.2-0.5,3.6,0.4V33.7z"/>
		<path fill="#FFFFFF" d="M196.2,33.7h9.1c0.9,0.4,0.4,1.4,0.4,1.8c-5,0.4-9,0-14,0.9c-0.5-0.5-0.5-1.4-0.5-2.3s0.9-0.4,1.4-0.4
			c0.9,0.4,2.2-0.5,3.6,0.4V33.7z"/>
		<path fill="#FFFFFF" d="M216.4,33.7h9.1c0.9,0.4,0.4,1.4,0.4,1.8c-5,0.4-9,0-14,0.9c-0.5-0.5-0.5-1.4-0.5-2.3s0.9-0.4,1.4-0.4
			c0.9,0.4,2.2-0.5,3.6,0.4V33.7z"/>
		<path fill="#FFFFFF" d="M30.4,56.4h-1.2c-0.1-0.3-0.1-0.6-0.2-1c-0.1-0.1-0.2-0.2-0.2-0.4c-0.3-0.8-0.5-1.4-1-2V14.4
			c0-1.7-0.9-2.5-2.7-2.5c-1.1,0-2.6,0.3-4.7,0.9c-0.8-0.3-1.6,0-2,0.6C14.9,14.5,13.1,15,13,15c-1.3,0.4-1.9,1.1-1.9,2.4
			c0,1.8,0.8,2.7,2.5,2.7c0.2,0,0.5,0,0.7-0.1l5.5-1.4c0,0.1,0,0.2,0.1,0.4c0.1-0.1,0.3-0.1,0.5-0.1c3.5-0.2,2.5,2.6,2.1,5.3
			c0.1,3.6,0.2,7.1,0.3,10.7c0,0,0.1,0.1,0.2,0.1v10.4c-0.1-0.1-0.2-0.1-0.4-0.1c0.1,0.7,0.1,1.4,0,2.2c0,0.1,0,0.2,0,0.3
			c0,0.2,0.1,0.3,0.1,0.5c0.1,0,0.2-0.1,0.3-0.2v8.5h-9.7c-1.7,0-2.5,0.9-2.5,2.5c0,1.7,0.9,2.5,2.5,2.5h3c0,0.1,0,0.2,0,0.2
			c4.9-0.1,9.6-0.5,14.4-0.1l0.1-0.1h7c1.7,0,2.5-0.9,2.5-2.5c0-1.7-0.9-2.5-2.5-2.5h-5.1"/>
		<path fill="#FFFFFF" d="M21.7,17.7c0,0.1,0,0.2,0.1,0.4L21.7,17.7L21.7,17.7z"/>
		<path fill="#FFFFFF" d="M77.9,17.3c-2.8-4.6-6.9-7-12.1-7c-4.4,0-7.9,1.4-10.6,4.4c-2.5,2.8-3.8,6.3-3.8,10.6
			c0,4.3,1.2,8,3.8,11.3c2.7,3.5,6.2,5.3,10.4,5.3c3.4,0,6.3-1.1,8.8-3.4c0.3,1.2,0.6,2.5,0.7,3.7c-0.5,1.8-1.2,3.5-2,4.9
			c0.1,0.2,0.2,0.4,0.2,0.7c-0.3,1.4-1.5,2.5-3,3.7c-0.4,0.6-0.7,1.1-1.2,1.6l0,0c-0.5,1.3-1.3,2.1-2.5,2.4c-0.5,0.6-1,1-1.6,1.4
			c-0.8,0.6-1.7,1-2.7,1.3c-0.3,0.3-0.7,0.4-1.1,0.5c-1,0.4-2.2,0.5-3.5,0.5c-0.5,0.1-1,0.2-1.4,0.3c-0.7,0.2-1.7,0.6-2.5,0.5
			c-0.7,0-1.8-0.2-3-0.6c0.2,1.3,1,2,2.5,2c9.5,0,16.6-2.7,21.3-8.1c4.5-5.1,6.7-12.3,6.7-21.7C81.5,26,80.3,21.1,77.9,17.3
			 M73.4,31.6c-0.1,0-0.2,0-0.4,0c-3.2,0.6-3.4,3.6-5.7,4.1c-0.6,0.2-0.9,0.5-1.1,1.1h-0.6c-2.5,0-4.7-1.1-6.5-3.4
			c-1.8-2.2-2.6-4.9-2.6-8.1c0-3,0.8-5.4,2.5-7.2c1.7-1.8,3.9-2.7,6.8-2.7c2.3,0,4.5,0.9,6.5,2.8c0.3,0.3,0.5,0.5,0.7,0.8
			c0,0.2,0,0.3,0,0.5c0.1,1,0.7,1.5,1.4,1.6c0,0,0,0.1,0.1,0.1c-0.3-0.1-0.6-0.1-0.9,0c0.5,1,0.8,2,0.9,3.1c0.2-0.1,0.4-0.2,0.6-0.4
			c0,0.2,0,0.4,0,0.6C75.2,27.1,74.6,29.5,73.4,31.6"/>
		<path fill="#FFFFFF" d="M57.7,59.3c-0.2,0-0.3,0-0.2,0H57.7z"/>
		<path fill="#FFFFFF" d="M116.1,60c0.4,0.3,0.7,0.4,1,0.3c0.4-0.5,0.8-1,1.3-1.4c0-0.4,0-0.8-0.2-1.2c0.4-0.4,0.7-0.8,1.1-1.2
			c0.5,0.3,1.1,0.3,1.8-0.2l0.1-0.1c0.2-0.6,0.4-1.1,0.7-1.6c-0.1-0.4-0.3-0.8-0.7-1c0,0,0.1-0.1,0.1-0.2c2.8-4.9,4.2-10.9,4.2-17.7
			c0-6.8-1.4-12.7-4.2-17.7c-3-5.4-7-8.1-11.8-8.1c-0.9,0-1.8,0.1-2.6,0.3c0-0.1,0-0.3,0-0.4c-0.6,0.1-1.1,0.2-1.7,0.3l0,0
			c-0.3,0.6-0.7,0.8-1.2,0.5c0.1,0.2,0.2,0.3,0.3,0.4c-2.5,1.3-4.7,3.5-6.6,6.9c-2.8,4.9-4.2,10.9-4.2,17.7c0,6.9,1.4,12.8,4.2,17.7
			c3,5.4,7,8.1,11.8,8.1c2.3,0,4.4-0.6,6.3-1.8C115.8,59.9,115.9,59.9,116.1,60 M111.6,55.7c-0.5-0.1-0.7-0.3-0.8-0.6
			c-0.5,0.2-0.9,0.3-1.5,0.3c-0.2,0.2-0.5,0.3-0.7,0.4c0-0.2,0-0.3,0-0.5c-0.7-0.1-1.3-0.3-1.9-0.7c-0.1-0.1-0.2-0.1-0.2-0.2
			c-0.4,0.2-0.7,0.5-0.8,0.9c-0.3-0.2-0.6-0.5-0.9-0.7c0-0.3-0.1-0.6-0.4-1c-3.4-4.2-4.5-9.7-4.7-15c-0.2-0.7-0.6-1-1.2-1.2v-1.5
			c0-6.1,1.2-11.1,3.5-15.1c0.3-0.6,0.8-0.9,1.3-1.1c0.7-1,1.8-1.4,3-1.5c1.2-1.2,3.6-0.7,5.1-0.7c1.1,0.4,1.5,1.3,1.2,2.1
			c1.1,0.1,2.1,0.3,2.9,1.1c1.8,1.8,2.5,5.4,3,9.1c0.7,1.4,0.7,3.2,0.9,4.6c0,0.2,0,0.3,0,0.4l0.8,1.2c0,3.5-0.4,6.6-1.1,9.3
			c0,0.3-0.1,0.5-0.2,0.8c0,0.2-0.1,0.5-0.2,0.7c-0.1,0-0.2,0-0.3-0.1c-0.7,0.8-1.3,1.7-2.1,2.6C116.8,50.8,113.5,55.5,111.6,55.7"
			/>
		<path fill="#FFFFFF" d="M165.2,56.8c-0.1,0.1-1.4,0-1.4,1.3c0,0.1,0,0.3,0.2,0.5c-0.2,0.3-0.3,0.5-0.4,0.8c-0.1,0-0.3-0.1-0.4-0.2
			c-0.4-0.3-0.6-0.6-0.7-0.9c-0.3,0.2-0.6,0.3-1.1,0.3h-0.1c-2.5,2.3-5.7,3.4-9.5,3.4c-5.1,0-9.1-2.3-11.8-6.8
			c-2.3-3.8-3.5-8.5-3.5-14.2c0-9.1,2.2-16.2,6.6-21.1c4.7-5.2,11.6-7.9,20.8-7.9c1.6,0,2.5,0.8,2.5,2.5s-0.8,2.5-2.5,2.5
			c-3.3,0-6.2,0.4-8.8,1.2c0,0.3,0.1,0.5,0.1,0.6c-0.1,1.4-1.2,1.8-2.4,1.7c-0.7-0.1-1.1-0.4-1.4-0.9c-4.9,2.6-8,7.1-9.3,13.6
			c0.7-0.5,1.7-0.2,2.1,0.7c2.2-1.8,4.8-2.6,7.7-2.6c4.1,0,7.5,1.7,10.2,5.2c2.4,3.1,3.6,6.8,3.6,11c0,2.4-0.4,4.6-1.3,6.5
			c0,0,0,0,0.1,0c0.7,1.1,0.1,2.4-0.7,2.7C164.3,56.3,164.7,56.4,165.2,56.8L165.2,56.8z M160.5,44.5c-0.2-0.2-0.3-0.5-0.5-0.7l0,0
			c0-0.6-0.1-1.2-0.1-1.8c-0.3-0.9-1.3-0.8-1.5,0.1c0,0.6,0,1.1,0.2,1.6c-0.6-1.1-1.1-2.2-1.3-3.4c-0.1-0.7,0.2-1.3,0.6-1.6
			c-1.6-1.7-3.5-2.6-5.7-2.6c-2.6,0-4.8,1.2-6.6,3.6c-1.8,2.4-2.7,5.2-2.7,8.5c0,2.2,0.9,4.3,2.9,6.1c1.9,1.8,4,2.7,6.3,2.7h0.7
			c0-0.7,0.6-1.4,1.7-1.5c0.6,0.1,1,0.3,1.3,0.5c0.2,0.1,0.3,0.2,0.3,0.3c0.5-0.3,1-0.5,1.5-0.9l0,0l0,0c0,0,0.1,0,0.1-0.1l-0.1,0.1
			c0.1,0,0.2-0.1,0.2-0.2l0,0c0,0,0.2-0.1,0.3-0.2l0.3-0.3c0.3,0.5,1.1,0.5,1.4-0.3c0.2-0.6,0.3-1.4,0.4-2.2c0.6-1.4,0.9-3,0.9-4.8
			v-0.5c-0.3-0.1-0.5-0.2-0.8-0.5c0-0.3,0-0.5,0-0.8C160.4,45.4,160.6,44.9,160.5,44.5 M163.5,56.4L163.5,56.4c0.1,0,0.1,0,0.2,0
			H163.5z"/>
		<path fill="#FFFFFF" d="M270.1,103.8c0.101-0.1,0.2-0.1,0.301-0.1c0.1,0,0.199,0,0.199,0.1c0.101,0.101,0.2,0.2,0.2,0.3
			c0.101,0.301,0,0.2,0,0.2c0,0.101-0.1,0.2-0.1,0.2c1.3,1.5,2,3.4,2,5.5c0,2.4-0.8,4.4-2.601,6.1c-1.699,1.7-3.699,2.5-6.1,2.5
			c-1.6,0-3.1-0.399-4.4-1.1c-0.6,0.2-1.199,0.3-1.8,0.1c0,0.2-0.2,0.5-0.399,0.7c-0.2,0.2-0.5,0.4-0.9,0.4H254
			c-0.8,0-1.2-0.4-1.2-1.2s0.4-1.2,1.2-1.2h0.6c0.101-0.5,0.5-1.1,0.9-1.5V107.4c0.2,0.3,0.6,0.199,0.7-0.2
			c-0.101-3-0.5-6-0.601-9.101c0-0.1-0.1-0.1-0.1-0.199v-0.4c-0.1,0-0.3,0-0.4-0.2c-0.199-0.2-0.5-0.5-0.699-0.899h-0.5
			c-0.801,0-1.2-0.4-1.2-1.2s0.399-1.2,1.2-1.2h2.699c0.7,0,1.2,0.6,1.2,1.2l0,0c0,0,0-0.101-0.1-0.101
			c-0.101-0.199-0.2-0.199-0.4-0.199c-0.2,0.1-0.3,0.1-0.5,0.3c-0.2,0.3,0,0.5,0.2,0.6c0,0.2,0,0.3,0,0.5c0,0.101,0.1,0.2,0.1,0.3
			c0,0.7,0,1.301,0,1.9c-0.1,0.1-0.199,0.1-0.199,0.3c0,0.4,0,0.8,0,1.2c0.1,0.5,0.5,0.5,0.8,0.1c0.1-0.199,0-0.3,0.1-0.5v4.601
			c1.7-1.7,3.8-2.601,6.2-2.601c2,0,3.8,0.601,5.4,1.801c0.199-0.101,0.399,0,0.5,0.3v0.1H270.1z M255.5,116.1V115.9
			C255.4,116,255.4,116.1,255.5,116.1L255.5,116.1z M268,114.9c0,0.1,0,0.1-0.1,0.199c-0.2,0.101-0.301,0.2-0.5,0.301
			c-0.101,0.1-0.101,0.1-0.2,0.1l0,0l0,0c-0.4,0.3-0.101,0.7,0.3,0.7l0,0c0.1-0.101,0.2-0.101,0.3-0.2c0.4-0.2,0.7-0.5,1.2-0.8
			c0.1,0,0.2,0,0.3-0.101c0.101-0.1,0.2-0.199,0.3-0.399c1.101-0.9,1.301-1.2,1.2-3.101c-0.1-0.199-0.1-0.3-0.3-0.3h-0.1
			c-0.101,0-0.101,0-0.2,0c0.1-0.399,0.1-0.899,0.1-1.399l-0.5-0.5c0-0.101,0-0.301,0-0.4s0-0.1,0-0.2c-0.5-3.1-2.8-5-5.7-5.5
			c-0.3,0-0.5,0.2-0.399,0.4c-1.5,0.1-2.8,0.7-3.9,1.8c-1.2,1.2-1.8,2.6-1.8,4.3v0.101c0.2,0,0.3,0.1,0.4,0.3v1
			c0,0.1-0.101,0.2-0.101,0.3c0.3,1,0.8,1.8,1.601,2.6c1.199,1.2,2.699,1.801,4.399,1.801c1.5,0,2.9-0.5,4-1.4
			C268.1,114.8,268,114.8,268,114.9 M266.2,105.5c-0.101,0.1-0.101,0.3,0,0.5l-1.601-1.6c0.7,0.199,1.4,0.5,2.101,0.899
			c0,0,0,0-0.101,0C266.4,105.2,266.3,105.3,266.2,105.5 M269.1,114L269.1,114c0,0.1-0.1,0.1-0.1,0.2c-0.1,0.1-0.3,0.3-0.5,0.399
			l0,0c-0.1,0-0.2,0-0.3,0l0.3-0.3c0.1-0.1,0.2-0.2,0.3-0.3C268.8,114.1,268.9,114,269.1,114"/>
		<path fill="#FFFFFF" d="M287.7,112.4c0.1-1,0.8-1.7,1.3-2.5c0.1-0.2,0.1-0.301-0.1-0.4l3-5.9h-0.7c0.1-0.199,0.1-0.5-0.2-0.6
			c-0.1,0-0.3,0-0.4,0v-0.2c-0.199-0.399-0.699-0.399-0.8,0c0,0.4,0.101,0.601,0.3,0.7h-0.3c-0.8,0-1.2-0.4-1.2-1.2
			c0-0.7,0.301-1.1,0.9-1.2c0.5,1,1.9,0.5,2.9,0.5c0.3-0.1,0.399-0.3,0.3-0.5h2.7c0.8,0,1.199,0.4,1.199,1.2c0,0.4-0.1,0.8-0.3,1
			c-0.1-0.1-0.1-0.2-0.3-0.2h-1.1c-0.5,0.101-0.5,0.5-0.301,0.7l-0.699,1.3c-0.101,0-0.101,0-0.2,0c-1.2,0.601-1.9,2.9-2.5,4.101
			c-0.3,0.6-0.9,0.899-1.101,1.6c0.101,0.5,0.5,0.5,0.801,0.101c0-0.2,0.1-0.301,0.3-0.4l-4.2,8.3c0.1-0.3,0.3-0.5,0.4-0.8
			c0.199-0.5-0.301-0.7-0.601-0.4c-0.5,0.801-1.101,2.601-1.899,2.9c-0.301,0.3-0.101,0.8,0.299,0.7c0.4-0.2,0.801-0.601,1.101-1
			l-1.8,3.5h2c0.8,0,1.2,0.399,1.2,1.2c0,0.8-0.4,1.199-1.2,1.199h-2.6c0-0.1,0-0.1,0-0.199c-0.101-0.101-0.201-0.301-0.301-0.4
			c-0.899-0.5-3.5,0.4-4.3,0.6c0,0,0,0-0.1,0h-1.9c-0.8,0-1.2-0.399-1.2-1.199c0-0.101,0-0.2,0-0.4c0.101,0,0.101,0,0.2,0.1
			c1.5-0.1,2.8-0.8,4.3-0.899c0.101,0,0.101,0,0.2-0.101h1.101l3.199-6.3L284.4,115.9c-0.101-0.801-0.4-1.5-0.7-2.301
			c-0.8-1.199-1.4-2.6-2.101-3.899c-0.1-0.2-0.199-0.5-0.399-0.7c-0.2-0.3-0.5-0.6-0.7-0.9c-0.1-0.1-0.1-0.5-0.1-0.899
			c-0.201-0.5-0.4-0.9-0.601-1.4c-0.101,0-0.3,0-0.5,0l-1.101-2.3H277c-0.801,0-1.2-0.4-1.2-1.2c0-0.6,0.2-1,0.8-1.2
			c1.5,0.801,3.6,0.5,5.2,0.4c0.3-0.1,0.399-0.3,0.3-0.5h1.2c0.8,0,1.2,0.4,1.2,1.2s-0.4,1.2-1.2,1.2h-2.2l0,0
			c-0.4,0-0.5,0.399-0.199,0.699c0.199,0.101,0.399,0.5,0.6,0.801c0.199,0.199,0.3,0.399,0.5,0.6c0.1,0.4,0.199,0.7,0.4,1
			c0.399,0.6,0.799,1,1.199,1.6l0,0c0.1,0.101,0.1,0.2,0.2,0.301c0.101,0.1,0,0.3,0,0.5c0.101,0.3,0.2,0.399,0.399,0.399
			c0.101,0.101,0.101,0.2,0.201,0.3c0.1,0.5-0.301,0.7-0.601,0.4c-0.101-0.3-0.3-0.6-0.5-1c0.3,0.8,0.7,1.5,1.2,1.7
			c0.1,0.1,0.3,0.1,0.4,0l1.899,3.7l0.899-1.9C287.5,112.7,287.6,112.6,287.7,112.4 M276.7,123.8c0.2,0,0.3-0.1,0.399-0.1
			L276.7,123.8z M277.5,123.7l-0.4,0.1L277.5,123.7z M277.5,123.7h0.1H277.5z M281.7,107.5c0.1,0.1,0.2,0.2,0.3,0.1
			c-0.2-0.399-0.5-0.699-0.7-1.1C281.5,106.9,281.6,107.2,281.7,107.5"/>
		<path fill="#FFFFFF" d="M331.3,119c0.2,0,0.3,0,0.601-0.1c0.1-0.101,0.199-0.2,0.199-0.4s-0.199-0.4-0.3-0.5
			c0.101-0.1,0.3-0.1,0.4-0.2c0.2,0.2,0.2,0.5,0.2,0.8c0,0.801-0.4,1.2-1.2,1.2h-1.9c0.101-0.2,0-0.399-0.3-0.5h-0.6
			c-0.4,0.101-0.5,0.3-0.4,0.5c-0.3,0-0.6-0.1-0.8-0.399L327.1,119.3c0.101-0.1,0.101-0.2,0.2-0.3c0,0,0-0.1,0-0.2
			c0.101,0,0.101,0,0.2,0c0.5-0.1,0.5-0.6,0-0.8c-0.4,0-0.6,0.1-0.8,0.2c-0.2,0-0.3-0.101-0.4-0.2c-1.8,1.3-3.899,2-6.399,2
			c-1,0-1.9-0.1-2.601-0.4c0.101-0.199,0.101-0.3-0.1-0.5c0.1,0,0.1,0.101,0.2,0.101c0.399,0,0.699,0,1,0.1c0.1,0,0.199,0,0.3-0.1
			l0.1-0.101h-0.1H318.6c-0.899-0.1-1.199-0.199-1.5-0.6c-0.1,0.1-0.1,0.1-0.1,0.2c-0.1,0.1,0,0.2,0,0.3c-0.1,0-0.2-0.1-0.3-0.1
			c-0.3-0.2-0.5-0.101-0.601,0.199c-0.199-0.1-0.399-0.199-0.6-0.399c-1.3-0.9-1.9-2.2-1.9-4c0-0.601,0.101-1.101,0.2-1.601
			c0.4-0.199,0.7-0.6,1-0.899c0.3-0.4,0-0.7-0.3-0.601c0.4-0.699,1-1.199,1.8-1.699c0.2-0.101,0.4-0.2,0.5-0.301
			c0.101,0.2,0.2,0.301,0.5,0.2c0.601-0.3,1.2-0.3,1.9-0.5c0.8-0.2,1.5-0.399,2.399-0.5c0.2-0.1,0.4-0.2,0.301-0.399h0.3
			c1.3,0,2.5,0.1,3.5,0.399c0,0-0.101,0.101-0.101,0.2c0.101,0.8,0.601,1.3,1.4,1.4c0.5-0.101,0.5-0.601,0-0.801
			c-0.4,0-0.6-0.199-0.7-0.699l0.3,0.1v-0.5c0-2.1-1-3.4-2.899-3.8c-0.4-0.4-1-0.7-1.5-0.7c-0.101,0-0.2,0.1-0.3,0.1
			C321.6,104,321.3,104,321.1,104c-0.3,0.1-0.699,0.2-1,0.4l-1,0.399c-0.699,0.3-1.3,0.601-2,0.7c-0.3,0.1-0.399,0.4-0.199,0.6
			c-0.101,0-0.2,0.101-0.4,0.101c-0.7,0-1.2-0.601-1.2-1.3c0-0.4,0.2-0.7,0.5-1c0.7-0.5,1.5-0.9,2.3-1.2c-0.1,0.2,0,0.5,0.301,0.6
			c0.399-0.1,0.6-0.3,0.8-0.5c0.1-0.1,0.1-0.3,0.1-0.399c0.3-0.101,0.601-0.101,1-0.2c0.601,0,1.2,0,1.7-0.101
			c1.5,0,2.8,0.301,3.9,0.801c0.1,0.199,0.199,0.399,0.3,0.5c0.3,0.399,0.6,0.5,1,0.6c0.3,0.1,0.5,0.3,0.6,0.7
			c0.101,0.1,0.2,0.2,0.2,0.3c-0.2,0.2-0.2,0.6,0.3,0.6c0.101,0,0.2,0.101,0.3,0.2c0.2,0.601,0.4,1.2,0.4,2c-0.2-0.1-0.5,0-0.5,0.3
			c0,1.301-0.2,2.601-0.2,3.9c0,0.2,0.101,0.3,0.2,0.4v0.899c0.1,0.4,0.4,0.5,0.6,0.3v0.301c-0.1,0.1-0.199,0.199-0.199,0.3v0.899
			c0,0.2,0.1,0.301,0.199,0.301v2h0.801c0,0.1,0,0.1,0.1,0.199c0.1,0.2,0.3,0.301,0.6,0.301c0,0.1,0,0.3,0.2,0.399
			c0.101,0.101,0.101,0.101,0.101,0.101C330.8,118.7,330.9,119,331.3,119 M318.3,118.4c0-0.101-0.1-0.4,0.101-0.5
			c0.1-0.101,1.1,0.6,1.6,0.8c0.4,0.1,0.5-0.3,0.4-0.5c0.199,0,0.399,0,0.6,0c1.1,0,2.4-0.4,3.2-1l1.399-1.3
			c0.301-0.5,0.4-1.101,0.5-1.7c0.101-0.5,0.4-1.101,0.301-1.7c-0.2-0.8-2.101-1.5-2.7-1.6c-2.5-0.2-5.7,0.1-6.8,2.3
			c-0.7,0.7-0.9,1.1-0.801,2.3c0,0.3,0,0.7,0.301,0.8c0.1,0.2,0.3,0.3,0.399,0.4c-0.1,0.1-0.2,0.1-0.2,0.2
			c-0.199,0.399,0.101,0.699,0.5,0.6c0.101,0.2,0.301,0.2,0.5,0.1h0.2c-0.1,0.2-0.1,0.4-0.2,0.7
			C317.6,118.7,318.1,118.8,318.3,118.4 M324,109c-0.4-0.3-0.9,0.3-0.5,0.6C324,109.9,324.3,109.3,324,109"/>
		<path fill="#FFFFFF" d="M341.2,105.5c0,0.5-0.2,1-0.3,1.5c0,0.1,0.1,0.2,0.1,0.3c-0.1,0.2-0.1,0.4-0.2,0.7
			c-0.7,1.2-0.1,5.7-0.1,7.3c0,0.101,0,0.101,0.1,0.2c0.101,0,0.2,0,0.3,0.1c0.101,0.101,0.301,0.301,0.5,0.5h1.101
			c0.8,0,1.2,0.4,1.2,1.2s-0.4,1.2-1.2,1.2H341.6c0-0.1-0.1-0.2-0.3-0.2c-1.1,0-3.399-0.399-4.5,0.2c-0.8,0-1.1-0.4-1.1-1.2
			s0.399-1.2,1.2-1.2h0.5c0.199-0.399,0.399-0.699,1-0.8c0.3,0,0.5,0.2,0.399,0.4c0.101-0.101,0.101-0.2,0.101-0.3
			c0.1-2.801,0.5-5.801-0.101-8.601c-0.1-0.399-0.2-0.7-0.399-1v-1.6c-0.4-0.101-0.801-0.3-1-0.7h-0.5c-0.801,0-1.2-0.4-1.2-1.2
			c0-0.5,0.1-0.8,0.399-1c0,0,0,0,0.101,0c0.1,0,0.2,0,0.3,0c0.5,0.4,1.1,0.5,1.7,0.601c0.5-0.101,0.5-0.601,0-0.801H338.1l0.2-0.1
			h1.4c0.3,0,0.6,0.1,0.8,0.4c0.2,0.199,0.3,0.399,0.3,0.6l0.2-0.2c0-0.2,0.2-0.399,0.5-0.3h0.1c0.101,0.1,0.2,0.3,0.2,0.4
			c1.3-0.9,2.8-1.301,4.7-1.301c1.8,0,3.3,0.601,4.4,1.801c0.699,0.8,1.199,1.6,1.5,2.6c-0.101,0-0.2,0.2-0.301,0.3v0.5
			c0,0.101,0.101,0.2,0.101,0.3c-0.101,0-0.2,0.101-0.3,0.301c0.1,0.3,0.399,0.8,0.399,1c0,0.199,0.101,0.3,0.2,0.3v0.2
			c-0.2,2-0.4,4-0.5,6.1c0.1,0.3,0.2,0.4,0.5,0.4v1.5h1.6c0.801,0,1.2,0.399,1.2,1.199c0,0.801-0.399,1.2-1.2,1.2H353.4
			c-1.5-0.1-3-0.3-4.5-0.399c-0.301,0-0.4,0.199-0.4,0.399h-0.1c-0.801,0-1.2-0.399-1.2-1.2c0-0.8,0.399-1.199,1.2-1.199h0.5
			c0-0.301,0.3-0.7,0.699-1.2c0.2-0.2,0.4-0.2,0.5,0c0.801-1.101,0.2-4.2,0.101-5.4c-0.101-0.2-0.101-0.2-0.2-0.3v-2.5
			c0-1-0.3-1.9-1-2.5c-0.5-0.5-1.1-0.8-1.9-1c-1.1-0.8-1.6-0.7-2.3-0.4c0-0.1-0.1-0.1-0.2-0.199c-0.399-0.301-0.899-0.2-1.399-0.101
			c-0.5,0.101-0.601,0.601,0,0.8c0.2,0,0.5-0.1,0.7-0.1c-0.301,0.1-0.7,0.2-1.2,0.3c-0.4,0.2-0.4,0.601,0,0.7
			c-0.2,0.2-0.5,0.4-0.7,0.6c-0.2,0.2-0.4,0.4-0.5,0.601l0,0C341.9,105,341.3,105,341.2,105.5 M338.6,116.1L338.6,116.1
			c-0.1,0-0.1,0-0.199,0H338.6z M350.4,116.1v-0.5c-0.2,0.2-0.301,0.301-0.301,0.5l0,0H350.4z"/>
		<path fill="#FFFFFF" d="M370.7,102.9c-0.101-0.2-0.2-0.301-0.3-0.5c1,0.3,1.899,0.8,2.699,1.5c0.101-0.2,0.101-0.301,0.4-0.601
			c0.1-0.1,0.2-0.1,0.2-0.1c0-0.3,0.1-0.601,0.399-0.8c0.2-0.2,0.5-0.4,0.9-0.4h2.9c0.8,0,1.199,0.4,1.199,1.2s-0.399,1.2-1.199,1.2
			h-0.4c0.1-0.2,0.2-0.301,0.4-0.2c0.5,0.2,0.8-0.3,0.399-0.601c-0.7-0.5-1.5,0.101-1.6,0.801h-0.5V118.8c0,5.3-2.7,7.9-8.101,7.9
			c-0.6,0-1.699-0.101-3.3-0.4c-0.7-0.1-1-0.5-1-1.1c0-0.4,0.101-0.7,0.4-1c0.2-0.2,0.6-0.4,0.899-0.3c0,0.199,0.101,0.3,0.2,0.399
			l0,0l0,0l0,0c0.101,0.101,0.2,0.101,0.2,0.101c0.1,0.199,0.3,0.3,0.5,0.199l0,0c-0.1,0.2-0.1,0.4,0.1,0.601
			c0.4,0.3,0.801,0.2,1.301,0.2c0.399-0.101,0.699-0.101,1-0.2c0.5,0.6,1.5,0.3,2.1-0.101c0.1-0.1,0.4,0,0.8-0.199
			c0.3-0.2,0.3-0.5,0.5-0.801c0-0.1,0,0,0.101-0.1c0.3-0.2,0.6-0.5,0.899-0.8c0.2-0.3,0.101-0.5-0.1-0.601
			c0.7-0.899,1.1-2.199,1.1-3.899v-1.4c0,0-0.1,0-0.1-0.1c-0.101,0.1-0.2,0.2-0.3,0.2c-0.4-0.101-0.7-0.2-0.9-0.5
			c-1.3,0.899-2.8,1.3-4.4,1.3c-2.3,0-4.199-0.8-5.8-2.4c-1.6-1.6-2.399-3.5-2.399-5.8c0-2.2,0.8-4.2,2.3-5.7
			c0.1,0.101,0.3,0.2,0.5,0.101c0.1,0,0.1-0.101,0.1-0.101c0.101,0,0.101,0,0.101-0.1c0.399-0.101,0.5-0.601,0.1-0.7
			c1.4-1.1,3.1-1.6,4.9-1.6c0.399,0,0.699,0,1.1,0.1c0,0.1,0,0.2,0.2,0.3c0.1,0.101,0.7,0.4,0.7,0.5
			C370.2,103.5,370.6,103.3,370.7,102.9 M373.8,110.3c0-1.6-0.6-2.899-1.7-4.1c-1.1-1.101-2.5-1.7-4-1.7c-1.6,0-2.899,0.6-4.1,1.7
			c-1.1,1.1-1.7,2.5-1.7,4.1v0.3c-0.399-0.3-0.7,0.101-0.6,0.5c0.3,0.301,0.2,0.9,0.2,1.301c0.1,0.5,0.6,0.5,0.699,0.1
			c0.301,0.7,0.7,1.3,1.301,1.9l0.199,0.199c0.4,2,1.601,1.301,3.301,2c0.399,0.101,0.5-0.199,0.399-0.5h0.101
			c1.6,0,2.899-0.6,4-1.699C373.2,113.2,373.8,111.9,373.8,110.3 M368.1,124.4c0.301,0,0.5,0,0.801,0c-0.101,0-0.2,0.1-0.4,0.199
			c-0.4,0.101-0.8,0.101-1.1,0.2c-0.101,0-0.2,0-0.301,0c0-0.2-0.1-0.399-0.199-0.5C367.4,124.3,367.8,124.4,368.1,124.4
			 M370.3,124.2c-0.1,0-0.1,0-0.2,0H370.3z M373.6,116.3c-0.1,0-0.1,0.101-0.1,0.101c0.1,0,0.1,0,0.1,0.1
			C373.6,116.4,373.6,116.4,373.6,116.3"/>
		<path fill="#FFFFFF" d="M401,107.4c0,0.399,0.1,0.699,0.2,1c0,0.1,0.1,0.1,0.1,0.199l0.101,0.4c-0.2-0.2-0.5-0.8-0.601-1
			c-0.3-0.4-0.8-0.1-0.6,0.4c0.399,0.5,0.5,1.3,1.2,1.399l0.1-1.399c0,0.1,0,0.199,0,0.3c0.2,0.399,0,2.3-0.6,2.399H400.8
			c-0.1,0-0.1,0-0.1,0l-0.3,0.301h-8c-0.101,0.1-0.301,0.199-0.4,0.199c0.1,0.101,0.2,0.101,0.3,0.101c0,0.1,0,0,0.101,0.1
			c-0.801-0.1-1.601-0.2-2.4-0.3c-0.1-0.1-0.1-0.1-0.2-0.2h-3.1c0,0.101,0,0.101,0,0.101c-0.101,0.1-0.101,0.3-0.101,0.3l0,0v0.1
			c0,0,0,0,0,0.101c-0.1,0.3-0.3,0.399-0.5,0.3c0.301,1.399,0.801,2.5,1.7,3.3c0.2,0,0.4,0,0.601,0.1c-0.5,0.301,0.1,1,0.5,1.301
			c0.8,0.699,1.899,1.1,2.899,1.1c0.7,0,1.2-0.3,1.9-0.4c1.3-0.1,2.5,0.4,3.899,0c0.2-0.1,0.5-0.199,0.7-0.3l0.601-0.399
			c0.399-0.301,0.8-0.5,1.3-0.601c0.5-0.1,0.399-0.8-0.101-0.8c-1.199,0.1-1.8,1-2.8,1.4c-0.5,0.199-1,0.199-1.5,0.199
			c0.601-0.1,1.101-0.199,1.601-0.3c0.3-0.1,0.399-0.399,0.3-0.6c0.8-0.3,1.6-0.7,2.5-1.101c0.2-0.1,0.399-0.199,0.6-0.199
			c0.7,0,1.2-0.801,1.2-0.101c0,0.5-0.2,2.2-0.7,2.4c-1.899,1-3.899,1.7-5.8,2.1c-0.1,0-0.1,0-0.1,0h-3c-0.2,0-0.4,0.101-0.4,0.3
			c-2.6-0.1-4.7-0.899-6.2-2.399c-0.5-0.5-0.899-1-1.2-1.601c0-0.1,0.101-0.1,0.101-0.199c-0.2-0.9-0.3-0.601-0.3-1.4
			c-0.101-0.2-0.2-0.3-0.4-0.3c-0.1-0.3-0.2-0.601-0.3-0.9c0-0.1,0-0.1,0.1-0.2v-0.1c0-0.1-0.1-0.2-0.2-0.3
			c-0.1-0.601-0.1-1.3-0.1-2s0.1-1.3,0.2-1.9h0.1c1-0.399,1.601-1.7,1.7-2.7c0-0.199-0.1-0.3-0.2-0.399c0-0.101,0-0.2,0-0.4v-0.1
			c0.3-0.4,0.601-0.8,1-1.101c1-0.899,2.2-1.5,3.601-1.899c0.899,0.3,2.8,0,3.399,0.1l0,0c0.101,0,0.101,0,0.101,0
			c0.3,0.2,0.1,1,0.899,1.101c0.5,0.1,0.7-0.601,0.2-0.7l0,0c0-0.101,0-0.101,0-0.101c0.4,0.101,0.7,0.101,0.9,0.2
			c0.199,0.3,0.5,0.3,0.699-0.1c0-0.101,0-0.101,0-0.101c0.101-0.1,0.101-0.199,0-0.3c0.2,0.101,0.301,0.101,0.4,0.2
			c0.1,0,0.1,0,0.2,0h0.2c0.1,0.1,0.199,0.2,0.3,0.2c0.6,0.3,1.2,0.7,1.7,1.2c0.1,0,0.199,0,0.399,0l0.101,0.1
			c0.1-0.2,0.399-0.2,0.6-0.1c0.3,0.399-0.2,0.8-0.5,0.6l0,0c0.4,0.4,0.7,0.9,1,1.4c0.1-0.101,0.2-0.2,0.4-0.2h0.399
			c0.4,0.2,0.4,0.7,0,0.8H400.9H400.8C400.7,106.5,400.9,106.9,401,107.4L401,107.4z M383.6,107.4c0.2-0.5,0.4-1.101,0.601-1.601
			c0,0,0,0.101,0.1,0.101l0,0C384.2,106.5,384,107.1,383.6,107.4 M384.4,114.4c0,0.199,0.1,0.399,0.3,0.399
			c0.1,0.101,0.1,0.3,0.3,0.5c-0.3-0.1-0.5,0.2-0.4,0.601c0.5,0.5,0.9,1.199,1.4,1.699l0,0h0.1c0.4,0.101,0.7-0.1,0.5-0.5
			c-0.199-0.5-0.5-0.899-0.699-1.399c-0.2-0.5-0.5-1.5-1-1.9c-0.301-0.1-0.5,0-0.5,0.3C384.4,114.3,384.4,114.4,384.4,114.4
			 M385,105.6C385,105.7,385,105.7,385,105.6L385,105.6z M385.8,109.4c0,0.1-0.1,0.199-0.1,0.3H385.6
			c-0.399,0.2-0.399,0.7,0.101,0.8c0.5-0.1,0.8-0.5,0.899-0.9C386.6,109,385.9,108.9,385.8,109.4 M386.9,109.3
			c0.8,0,1.5,0.2,2.3,0.4c0.399,0.1,0.8,0.5,1.2,0.5c2.199,0,4.3-0.2,6.5-0.2c0.399-0.1,0.5-0.5,0.1-0.7l0.2-0.1c0.1,0,0.2,0,0.2,0
			h0.3c0.399,0,0.7-0.101,0.899-0.5c0.301-0.5-0.199-1.2-0.8-1.8c-0.1-0.301-0.3-0.601-0.6-0.9c-0.2-0.5-0.601-1-1-1.3
			c-0.3-0.2-0.5-0.101-0.601,0.2c-1-0.5-2.1-0.9-2.8-1c-0.3,0-0.5,0.1-0.7,0.3c-0.399-0.101-0.899-0.2-1.3-0.2
			c-2.2-0.2-2.2,1.2-3.3,2h-0.1l0,0c-0.101,0-0.2,0.1-0.301,0.2c-0.1,0.1-0.199,0.3-0.1,0.6c-0.2,0.2-0.3,0.5-0.4,0.7
			c-0.399,0.1-0.8,0.6-0.5,1.2c0.101,0.2,0.2,0.3,0.4,0.3C386.6,109.2,386.7,109.3,386.9,109.3 M389.7,116.9
			c0.7,0.199,1.6,0.3,2.5,0.399c-0.5,0.2-0.8,0.2-1.5,0C390.3,117.2,390,117.1,389.7,116.9 M389.9,109.3c1.1,0.2,2.6,0.2,3.8,0.101
			c-1.101,0.1-2.2,0.1-3.2,0.1C390.3,109.4,390.1,109.4,389.9,109.3"/>
		<path fill="#FFFFFF" d="M409.8,93.8c0.8,0.2,2.601,1.3,3,0.2c0-0.1,0-0.1,0-0.2h1.7c0.7,0,1.2,0.601,1.2,1.2v0.3
			c-0.2,0-0.3,0.101-0.4,0.3v5.5c0.101,0.4,0.3,0.5,0.5,0.301v0.199c0,0.101,0,0-0.1,0.101c0,0,0,0,0.1,0c0,0.899,0,1.8,0,2.7l0,0
			c-0.2-0.301-0.6-0.2-0.7,0.199c0,2.601,0.101,5.2,0.101,7.801c0.1,0.3,0.2,0.399,0.399,0.399v2.2c0.101,0.1,0.301,0.3,0.4,0.4
			c0.1,0.199,0.2,0.399,0.2,0.6h6.1c0.8,0,1.2,0.4,1.2,1.2s-0.4,1.2-1.2,1.2h-1.5c0-0.101-0.1-0.101-0.1-0.101
			c-0.3-0.2-0.5-0.2-0.8-0.2c-0.301,0-0.4,0.2-0.4,0.4h-3.7c-0.2-0.1-0.5,0-0.7-0.1c0-0.101-0.1-0.101-0.199-0.101
			c-1.5,0-3,0.101-4.5,0.101c-0.2,0-0.301,0.1-0.301,0.1h-3c-0.8,0-1.199-0.4-1.199-1.2s0.399-1.2,1.199-1.2h0.2
			c0,0.2,0.2,0.301,0.4,0.301h1.6c0.2-0.101,0.3-0.2,0.3-0.301h2.601c0.1-0.1,0.2-0.199,0.3-0.399c0-0.601,0.1-1.2,0.3-1.8
			c0.2,0,0.3-0.2,0.4-0.4c0.1-1.8,0.3-3.6,0.399-5.5c-0.1-0.2-0.3-0.3-0.5-0.3v-7c-0.1-0.7-0.199-1.4-0.3-2
			c-0.1-0.101-0.1-0.101-0.2-0.101l-0.1-0.1c0,0,0,0-0.1,0c-0.4,0-0.7-0.2-1.101-0.5c0.101-0.1,0.101-0.2,0.101-0.3
			c-0.101-0.5-0.2-0.8-0.5-1.101c-0.101-0.1-0.2-0.1-0.301-0.199c-0.199-0.4-0.6-0.4-0.699,0h-2c-0.801,0-1.2-0.4-1.2-1.2
			s0.399-1.2,1.1-1.2c0.2-0.2,0.4-0.3,0.7-0.3c0.2,0.1,0.5,0.1,0.8,0.1C409.5,93.7,409.6,93.8,409.8,93.8 M416.3,109.5
			c0,0.3-0.1,0.5-0.3,0.6c0-1.1-0.1-2.1-0.1-3.3c0.1,0.101,0.1,0.101,0.199,0.101c0.101,0.199,0,0.3,0.101,0.5
			c0,0.1,0.1,0.1,0.1,0.1C416.3,108.2,416.3,108.8,416.3,109.5"/>
		<path fill="#FFFFFF" d="M432.1,102L432.1,102L432.1,102c0.101,0,0.2-0.1,0.301-0.1c-0.101-0.301,0.3-0.7,0.6-0.4l0,0
			c1.4-0.7,2.9-1.1,4.6-1.1c2.101,0,3.9,0.5,5.5,1.699c0.101-0.1,0.301-0.1,0.5,0c0.101,0.101,0.101,0.301,0.101,0.4l0.6,0.5h0.5
			c0.101,0.1,0.2,0.2,0.3,0.3c0.101,0,0.2,0.101,0.301,0.3v0.4c0,0.1,0,0.2-0.101,0.2c1.2,1.5,1.8,3.3,1.8,5.3
			c0,2.5-0.899,4.7-2.8,6.4c-1.899,1.8-4.1,2.6-6.7,2.6c-2.6,0-4.8-0.9-6.699-2.6c-0.101-0.101-0.301-0.301-0.4-0.4v-0.1
			c0-0.101,0-0.2,0-0.4c0,0-0.1-0.1-0.1-0.2c0-0.1,0-0.2,0-0.3c-0.101-0.3-0.2-0.6-0.301-0.9c-0.399-0.6-0.699-1.1-0.899-1.8
			c-0.2,0-0.3,0.101-0.3,0.3c0,0.101,0,0.2,0,0.301c-0.101,0-0.2,0-0.301,0.199c-0.399-1-0.6-2-0.6-3.199c0-2.5,0.9-4.601,2.8-6.4
			c0.2-0.2,0.4-0.4,0.7-0.6l0,0C431.2,102.1,431.7,101.7,432.1,102 M430.7,106.1c0,0.801,0,1.7-0.101,2.5c0,0.2,0,0.4-0.1,0.5
			c0,0.2,0,0.4-0.1,0.601c0,0.1,0.1,0.2,0.1,0.3c0.1,1.6,0.8,3,2,4.1c1.4,1.301,3,1.9,5,1.9c1.9,0,3.6-0.6,5-1.9
			c0.7-0.6,1.2-1.3,1.5-2.1c0,0,0,0-0.1,0c-0.2,0.1-0.4-0.1-0.5-0.4c0.1-1,0.1-2.199,1-2.699c0-0.5-0.101-1-0.301-1.4
			c0.2-0.1,0.2-0.2,0.301-0.4l0,0c-0.101,0.301-0.5,0.5-0.7,0.101c-0.3-0.4,0.2-0.7,0.5-0.5c-0.3-0.8-1.2-1.8-1.9-2.101
			c-0.1,0-0.1,0-0.1,0c-1.3-1.199-2.9-1.8-4.8-1.8c-1.9,0-3.601,0.601-5,1.9c-0.5,0.399-0.801,0.899-1.101,1.399V105.9
			C431.3,105.6,430.8,105.6,430.7,106.1 M443.2,107.3c0.3,0.3-0.101,0.8-0.5,0.601C442.3,107.6,442.8,107,443.2,107.3 M444.2,108.2
			c-0.101,0.5-0.601,0.6-0.7,0.2c-0.4-0.2-0.4-0.7,0.1-0.7C443.9,107.6,444.2,107.9,444.2,108.2"/>
		<path fill="#FFFFFF" d="M463.5,117c0.5-0.1,0.5-0.6,0-0.8H463c-0.1,0-0.2,0.1-0.2,0.1c0-0.1-0.1-0.1-0.1-0.1h3.6V115
			c0,0,0,0,0.101,0c0.6-0.2,1.199-1.6,1.199-2.6l0,0c0.801,0,1.2,0.399,1.2,1.199v3.801c0,0.699-0.6,1.199-1.2,1.199h-7.3
			c0-0.1-0.1-0.199-0.3-0.199c-1.7,0-3.4,0.199-5.1,0.199h-0.5c-0.7,0-1.2-0.6-1.2-1.199v-0.7c0-0.3,0.1-0.601,0.399-0.9l0.2-0.2
			c0.101,0.4,0.5,0.5,0.7,0.101c0.1-0.101,0.1-0.101,0.1-0.2v-0.1c0-0.2-0.1-0.4-0.199-0.4l4.899-5c0,0.1,0,0.1,0,0.1
			c-0.2,0.5,0.5,0.7,0.7,0.2c0.2-0.7,0.8-1.7,1.6-2.6l1.7-1.8c0.4-0.301,0.7-0.5,0.9-0.601c0.2-0.1,0.3-0.399,0.2-0.5l1.199-1.2
			h-3.8c0.101-0.199,0-0.399-0.3-0.5c-1.1,0.101-2.4,0-3.4,0.5H456v1.7l-0.2,0.2c-0.7,0.7-0.7,0.3-0.7,1.3c-0.199-0.1-0.5,0-0.6,0.3
			c0,0.101,0.1,0.2,0.1,0.301c-0.8,0-1.199-0.4-1.199-1.2v-3.8c0-0.7,0.6-1.2,1.199-1.2h2.7c0.2,0.6,0.601,0.899,1.3,0.899
			c0.2-0.1,0.4-0.199,0.301-0.399c0.1,0,0.1,0,0.199,0h2.2c0.3-0.101,0.4-0.3,0.3-0.5h0.801c-0.101,0.2,0.1,0.399,0.399,0.5h0.8
			c0.301-0.101,0.4-0.3,0.301-0.5h3.5c0.699,0,1.199,0.6,1.199,1.2v0.8c0,0.3-0.1,0.6-0.399,0.899L465.6,106.7
			c-0.1,0-0.199,0-0.3,0.1c-0.8,0.7-2.1,1.2-2.399,2.3c-0.101,0.101,0,0.2,0,0.301l-5.301,5.3c0.5-1.4,1.9-2.3,3-3.3
			c0.301-0.4-0.1-0.801-0.5-0.5c-1.399,1.1-2.899,2.3-3.3,4.1c0,0.2,0.101,0.3,0.2,0.4l-0.8,0.8h1.899c-0.199,0.2-0.1,0.5,0.301,0.6
			c1.3,0,2.6,0.101,3.899,0.101c0.101,0,0.101,0,0.2-0.101c0.1,0.101,0.2,0.2,0.3,0.2H463.5z M455.8,106.8v-0.5l0.101-0.1
			L455.8,106.8z M458.8,101.2c-0.2,0-0.399,0-0.5-0.101h0.601C458.9,101.2,458.9,101.2,458.8,101.2
			C458.9,101.3,458.8,101.3,458.8,101.2"/>
		<path fill="#FFFFFF" d="M386.5,100c0.1,0,0.2,0,0.3-0.1l2.8-1C389.7,99.1,389.9,99.3,390.4,99.1c0.199-0.1,0.199-0.399,0.3-0.6
			l3.8-1.4c-0.1,0.101-0.1,0.301,0.2,0.301l0,0c0,0.1,0.1,0.1,0.2,0.1c0.199,0,0.399,0,0.6-0.1c0.2-0.101,0.2-0.2,0-0.301
			c-0.3-0.1-0.6-0.1-0.8-0.1l0,0l1.8-0.7c0.1-0.1,0.2-0.2,0.2-0.5c0-0.1-0.2-0.399-0.4-0.899c0,0.1,0,0.199,0,0.3
			c0,0.3-0.3,0.3-0.399,0c0-0.3,0-0.5,0.199-0.7c-0.1-0.2-0.199-0.4-0.3-0.6c-0.1-0.2-0.3-0.2-0.5-0.2s-0.3,0-0.5,0.1
			c0.101,0.101,0,0.2-0.1,0.3c-0.101,0-0.3,0-0.4,0l-0.2,0.101l0,0c-0.1,0.1-0.199,0.2-0.3,0.1l-3.2,1.9c0.101,0.1,0.101,0.2,0,0.2
			c-0.699,0.6-1.5,1-2.399,1.199l-1.9,1.101c-0.2,0.1-0.399,0.3-0.399,0.5C385.7,99.8,385.9,100,386.5,100 M392.1,95.7
			c0.301,0,0.601-0.2,0.801-0.4c0.199-0.2,0.399,0.101,0.3,0.3c-0.3,0.301-0.601,0.5-1,0.5C391.9,96,391.9,95.8,392.1,95.7"/>
		<path fill="#FFFFFF" d="M390.3,98.7l-0.3,0.1l0,0C390.1,98.8,390.2,98.8,390.3,98.7C390.2,98.8,390.2,98.7,390.3,98.7"/>
		<path fill="#FFFFFF" d="M298.4,116.4h9.1c0.9,0.399,0.4,1.399,0.4,1.8c-5,0.399-9,0-14,0.899c-0.5-0.5-0.5-1.399-0.5-2.3
			c0-0.899,0.899-0.399,1.399-0.399c0.9,0.399,2.2-0.5,3.601,0.399V116.4z"/>
	</g>
</g>
</svg>
