<?xml version="1.0" encoding="iso-8859-1"?>
<!-- Generator: Adobe Illustrator 16.0.0, SVG Export Plug-In . SVG Version: 6.00 Build 0)  -->
<!DOCTYPE svg PUBLIC "-//W3C//DTD SVG 1.1//EN" "http://www.w3.org/Graphics/SVG/1.1/DTD/svg11.dtd">
<svg version="1.1" id="Layer_1" xmlns="http://www.w3.org/2000/svg" xmlns:xlink="http://www.w3.org/1999/xlink" x="0px" y="0px"
	 width="480px" height="140px" viewBox="0 0 480 140" style="enable-background:new 0 0 480 140;" xml:space="preserve">
<g>
	<path style="fill:#FFFFFF;" d="M202.365,93.563c-13.214-9.125-8.127-28.015-16.917-39.308c-2.851-3.806-10.688-3.936-15.385-1.491
		c-9.161,4.961-12.251,18.097-15.643,27.973c-3.359-9.996,0.03-19.849-2.241-29.583c-0.291-1.442-13.7-0.105-13.663,1.886
		c-0.238,13.501-4.117,25.897-8.703,38.361c-2.096,4.44-9.283,15.339-12.487,11.375c-9.107-11.25-7.868-57.084-7.945-62.441
		c-0.025-1.732-14.611-0.783-14.435,1.264c1.088,12.511-0.106,43.299-3.248,52.072c-3.288,9.188-13.769,14.178-19.169,11.966
		c-4.353-1.78-5.28-4.347-6.725-7.921c-7.281-17.998,2.293-34.613,11.971-49.65c10.628-16.106,28.355-20.57,46.404-21.084
		c10.682,0.481,22.717,8.301,26.425,18.263c0.926,2.218,8.463-4.644,11.998-8.856c3.593-3.507-1.001-7.363-4.383-9.549
		c-18.527-9.021-42.161-11.563-63.141-4.051c-21.595,8.627-45.371,28.801-47.47,53.457c-2.09,12.598,0.231,26.941,10.859,34.879
		c7.178,5.047,19.342,6.445,25.806,3.064c6.465-3.387,11.175-9.171,14.997-17.661c0.918,2.401,1.964,5.696,2.923,7.576
		c5.705,9.108,12.861,9.163,20.927,8.101c12.778-3.951,16.612-20.205,20.33-30.465c2.974,9.676,0.519,28.451,1.038,31.433
		c0.158,0.9,1.884,1.259,1.884,1.259c8.125-1.387,11.508-1.535,13.084-2.469c1.574-0.935,1.625-16.081,6.383-30.453
		c2.136-6.312,5.42-17.191,7.798-16.287c1.513,0.711,2.649,21.146,9.368,30.038c3.335,4.418,7.978,6.041,13.197,4.877
		C198.79,99.559,203.379,97.029,202.365,93.563z M278.666,29.074c3.627-0.121,14.793-13.569,12.162-21.34
		c-1.977-5.86-15.146-3.49-10.828,2.902C283.748,16.175,274.457,29.214,278.666,29.074z M431.689,95.497
		c-3.238-5.109-9.271-8.991-12.686-6.893c-5.258,3.233,4.707,10.015-0.889,9.853c-5.6-0.157-24.783-5.555-28.984-10.939
		c-1.34-1.725,33.057-10.929,37.135-25.598c1.852-6.658,0.395-11.739-4.844-14.827c-23.377-11.791-67.973-20.878-72.166-20.347
		c-4.193,0.528-4.396,2.517-3.207,4.844c3.738,7.333,0.385,4.366-5.781,12.315c-6.262,8.068-9.363,22.788-3.168,34.425
		c3.312,6.234,8.875,9.473,17.578,9.06c8.705-0.416,14.559-3.99,17.9-14.739c3.342-10.751,0.477-23.051-7.785-31.781
		c18.84,1.123,50.566,8.844,49.775,17.11c-0.783,8.267-27.832,15.411-33.721,19.974c-5.891,4.563-9.426,7.286-4.424,13.888
		c4.973,6.574,35.072,20.889,49.621,16.215C432.342,106.029,434.932,100.612,431.689,95.497z M360.424,67.328
		c-1.914,9.782-7.143,16.447-13.502,4.018c-6.1-11.919,1.77-28.421,7.451-28.422C358.119,42.919,362.385,57.293,360.424,67.328z
		 M323.844,3.214c-2.395-4.73-16.664-4.151-15.051,1.156c1.607,5.303,2.5,50.957-3.217,60.659
		c-3.02,5.127-14.611,24.923-24.158,23.103c-6.471-1.233-7.342-20.421-7.342-20.421c11.539,0.409,18.393-6.084,19.826-14.013
		c0.654-4.671,1.189-10.719-6.734-12.594c-7.926-1.878-12.877,1.937-17.234,5.76c-4.357,3.825-7.354,18.26-6.385,24.329
		c0.521,3.257-21.352,12.18-24.05,13.068c-0.088-2.928-0.25-28.986,0.035-35.044c10.777,3.947,6.875,0.457,6.841-8.093
		c-0.012-3.259-20.316-9.01-31.366-0.446c-9.46,7.33-15.332,25.059-9.898,37.113c3.026,6.713,8.331,8.895,12.888,8.141
		c4.559-0.752,8.442-5.07,10.276-8.422c0.904,3.378,0.432,5.382,0.892,10.168c0.458,4.785-41.636,12.213-33.187,30.219
		c7.257,15.451,20.373,21.201,34.295,21.119c15.963-0.095,11.725-26.477,9.854-43.888c7.858-3.295,15.063-6.352,22.885-10.228
		c2.387-1.179,1.748,2.618,3.389,5.514c4.102,6.38,10.908,8.306,18.24,6.955c11.139-2.395,21.75-16.927,26.549-26.922
		c-0.078,6.529,0.053,16.018,8.312,20.998c4.811,2.899,14.564,0.684,12.738-3.4C316.385,52.562,325.602,6.678,323.844,3.214z
		 M284.744,45.505c2.766,1.041,2.066,6.183-1.33,10.078c-1.926,2.207-7.404,5.49-8.875,4.513
		C273.135,59.163,277.594,42.809,284.744,45.505z M218.954,74.812c-5.976,2.48-8.821-3.306-6.823-13.07
		c1.997-9.762,13.821-13.128,15.051-12.096C228.414,50.68,228.23,70.966,218.954,74.812z M230.186,126.799
		c-4.316,2.822-14.352-3.384-16.85-5.141c-2.497-1.761-6.02-4.751-5.591-9.191c0.425-4.44,15.278-9.969,22.842-12.76
		C230.587,99.707,232.8,125.093,230.186,126.799z"/>
	<path style="fill:#FFFFFF;" d="M271.984,118.957h-0.062v20.444h-3.281v-22.782h5.236l10.033,20.006l10.033-20.006h5.238v22.782
		H295.9v-20.444h-0.062l-10.193,20.444h-3.469L271.984,118.957z"/>
	<path style="fill:#FFFFFF;" d="M321.555,116.024c9.557,0,12.811,6.559,12.811,11.984c0,5.432-3.254,11.991-12.811,11.991
		c-9.564,0-12.809-6.56-12.809-11.991C308.746,122.583,311.99,116.024,321.555,116.024z M321.555,137.413
		c5.52,0,9.338-3.784,9.338-9.404c0-5.613-3.818-9.401-9.338-9.401c-5.523,0-9.342,3.788-9.342,9.401
		C312.213,133.629,316.031,137.413,321.555,137.413z"/>
	<path style="fill:#FFFFFF;" d="M343.734,116.619h8.865c10.127,0,13.566,4.232,13.566,11.675c0,7.006-4.26,11.107-13.094,11.107
		h-9.338V116.619z M347.018,136.812h6.182c7.508,0,9.496-4.354,9.496-8.804c0-5.898-2.648-8.801-10.287-8.801h-5.391V136.812z"/>
	<path style="fill:#FFFFFF;" d="M375.729,116.619h17.041v2.589h-13.764v7.191h12.881v2.592h-12.881v7.821h14.139v2.589h-17.416
		V116.619z"/>
</g>
</svg>
