<?xml version="1.0" encoding="iso-8859-1"?>
<!-- Generator: Adobe Illustrator 16.0.0, SVG Export Plug-In . SVG Version: 6.00 Build 0)  -->
<!DOCTYPE svg PUBLIC "-//W3C//DTD SVG 1.1//EN" "http://www.w3.org/Graphics/SVG/1.1/DTD/svg11.dtd">
<svg version="1.1" id="Calque_1" xmlns="http://www.w3.org/2000/svg" xmlns:xlink="http://www.w3.org/1999/xlink" x="0px" y="0px"
	 width="841.889px" height="1190.551px" viewBox="0 0 841.889 1190.551" enable-background="new 0 0 841.889 1190.551"
	 xml:space="preserve">
<path fill="#1D1D1B" d="M73,532.983h-0.142l-5.939,17.677H78.94L73,532.983z M62.959,561.549l-3.817,9.616H43.869l21.353-55.293
	h15.697l20.787,55.293H86.434l-3.535-9.616H62.959z"/>
<polygon fill="#1D1D1B" points="107.504,515.872 121.787,515.872 148.232,549.67 148.372,549.67 148.372,515.872 162.797,515.872 
	162.797,571.165 148.372,571.165 121.929,537.367 121.787,537.367 121.787,571.165 107.504,571.165 "/>
<polygon fill="#1D1D1B" points="195.038,571.165 180.615,571.165 180.615,528.034 168.736,528.034 168.736,515.872 206.917,515.872 
	206.917,528.034 195.038,528.034 "/>
<g>
	<path fill="#1D1D1B" d="M224.736,542.599c0,9.615,7.07,16.545,15.696,16.545s15.697-6.929,15.697-16.545
		c0-7.637-7.071-14.565-15.697-14.565S224.736,534.963,224.736,542.599 M270.977,542.458c0,17.959-12.868,30.545-30.687,30.545
		c-17.817,0-30.687-12.586-30.687-30.545c0-16.687,14.707-28.424,30.687-28.424S270.977,525.771,270.977,542.458"/>
</g>
<polygon fill="#1D1D1B" points="279.321,515.872 293.744,515.872 320.047,549.67 320.189,549.67 320.189,515.872 334.613,515.872 
	334.613,571.165 320.189,571.165 293.886,537.367 293.744,537.367 293.744,571.165 279.321,571.165 "/>
<rect x="345.643" y="515.872" fill="#1D1D1B" width="14.424" height="55.293"/>
<g>
	<path fill="#1D1D1B" d="M383.116,542.599c0,9.615,7.071,16.545,15.697,16.545s15.696-6.929,15.696-16.545
		c0-7.637-7.07-14.565-15.696-14.565S383.116,534.963,383.116,542.599 M429.359,542.458c0,17.959-12.868,30.545-30.687,30.545
		s-30.687-12.586-30.687-30.545c0-16.687,14.707-28.424,30.687-28.424C414.793,514.034,429.359,525.771,429.359,542.458"/>
</g>
<polygon fill="#1D1D1B" points="471.075,515.872 485.216,515.872 496.388,545.427 508.408,515.872 522.691,515.872 531.034,571.165 
	516.61,571.165 512.651,539.346 512.509,539.346 499.216,571.165 493.418,571.165 480.692,539.346 480.55,539.346 476.025,571.165 
	461.601,571.165 "/>
<path fill="#1D1D1B" d="M564.266,532.983h-0.142l-5.939,17.677h12.021L564.266,532.983z M554.226,561.549l-3.818,9.616h-15.272
	l21.354-55.293h15.696l20.788,55.293h-15.414l-3.535-9.616H554.226z"/>
<g>
	<path fill="#1D1D1B" d="M644.73,515.872v31.111c0,7.07-0.283,14.141-5.798,19.515c-4.667,4.525-11.879,6.222-18.384,6.222
		s-13.717-1.556-18.384-6.222c-5.515-5.374-5.798-12.444-5.798-19.515v-31.111h14.424v29.131c0,7.212,0.565,14.99,9.758,14.99
		c9.191,0,9.757-7.919,9.757-14.99v-29.131H644.73z"/>
	<path fill="#1D1D1B" d="M669.901,540.619h1.414c4.667,0,10.041-0.848,10.041-6.929s-5.232-6.93-10.041-6.93h-1.414V540.619z
		 M701.577,571.165h-17.96l-13.575-21.354h-0.142v21.354h-14.424v-55.293h21.494c10.89,0,19.232,5.232,19.232,16.97
		c0,7.637-4.242,14.283-12.161,15.697L701.577,571.165z"/>
</g>
<rect x="706.95" y="515.872" fill="#1D1D1B" width="14.425" height="55.293"/>
<polygon fill="#1D1D1B" points="774.828,559.003 774.828,571.165 727.455,571.165 753.617,528.034 731.839,528.034 731.839,515.872 
	777.657,515.872 751.637,559.003 "/>
<rect x="783.455" y="515.872" fill="#1D1D1B" width="14.424" height="55.293"/>
<g>
	<path fill="#1D1D1B" d="M596.083,629.143c0-0.283-0.565-0.424-1.555-0.424c-6.788-0.142-33.374-0.566-42.424-0.849
		c-1.556-0.142-1.98,0.565-1.98,1.272c-0.141,0.849,0.425,1.132,2.263,1.132c8.909-0.142,35.495-0.425,42.424-0.566
		C595.376,629.709,596.083,629.568,596.083,629.143L596.083,629.143z M509.539,634.941c3.111-1.131,7.637-2.97,11.454-5.232
		c5.091-3.111,9.616-6.363,10.889-10.464c0.99-3.677-0.565-6.223-4.949-6.223c-3.252,0-6.787,1.414-9.616,3.677
		c-2.262,1.697-4.242,3.96-4.808,6.081c-0.283,1.414,0.142,2.97,2.263,3.252c0.849,0.142,1.697-0.142,2.263-0.282
		c0.282-0.142,0.849-0.425,0.707-0.566c-0.142-0.141-0.283-0.141-0.707,0c-1.839,0.425-2.97-0.565-2.546-2.969
		c0.425-1.697,1.98-3.677,3.395-4.809c1.979-1.697,4.525-2.545,6.787-2.545c1.98,0,3.111,1.555,2.404,3.817
		c-1.414,4.243-8.061,10.041-14.565,13.858c-3.677,2.121-7.636,3.96-9.05,4.95c-0.849,0.424-1.415,0.848-1.697,1.414
		c-0.142,0.424-0.142,0.707,0.142,0.565c0.424-0.142,1.414-0.849,2.121-1.272c0.849-0.425,2.121-0.99,3.11-0.99
		c1.556,0,2.688,0.142,3.96,0.849c1.556,0.849,3.677,1.414,5.515,1.414c3.96,0,7.354-3.394,9.899-6.788
		c0.142-0.142,0.424-0.565,0.142-0.849c-0.142-0.141-0.425,0.142-0.849,0.425c-2.828,2.97-4.525,3.677-6.93,3.677
		c-1.556,0-3.959-1.273-6.08-1.414C511.237,634.517,510.67,634.658,509.539,634.941 M510.388,615.568
		c-7.354,4.949-18.808,14.707-28.707,24.322c-2.403,2.404-2.403,2.688,0.849,2.121c2.121-0.282,4.525-0.848,5.232-1.414
		c6.363-7.636,17.111-19.373,24.605-25.736c0.565-0.142,1.132-0.283,1.132-0.707c0-0.425-1.132-0.142-1.556,0.141
		c-2.121,0.566-5.939,1.132-9.192,1.132c-3.959-0.142-4.808-1.556-3.959-2.97c0.142-0.424,0.424-0.565,0.424-0.849l-0.142-0.142
		c-0.424,0-1.414,0.142-2.262,0.565c-0.849,0.425-2.263,1.132-2.404,2.688c-0.283,1.979,1.838,2.97,3.818,2.97
		C501.903,618.113,507.418,616.699,510.388,615.568 M449.864,647.81c-1.979,0-4.102-0.99-4.809-2.404
		c-0.141-0.425-0.141-0.849-0.424-0.707c-0.283,0-0.283,0.707-0.142,1.272c0.565,1.697,2.828,2.97,5.657,2.97
		c9.757,0,21.777-8.202,28.989-17.535c3.677-4.808,5.798-10.182,5.515-13.293c-0.142-2.263-1.414-4.384-3.959-4.808
		c-3.395-0.707-10.182,1.272-13.858,6.363s-3.111,10.465,1.131,11.172c2.121,0.424,4.242-0.565,6.081-1.979
		c0.989-0.849,1.414-1.556,1.272-1.697c-0.142-0.283-0.707,0.282-1.414,0.849c-1.132,0.849-3.253,1.979-4.808,1.696
		c-2.122-0.565-1.556-4.242,1.131-8.201c3.394-4.809,7.495-7.778,9.898-7.213c1.132,0.142,1.697,1.132,1.414,2.688
		c-0.282,2.828-2.403,6.505-6.787,12.727c-2.828,3.96-8.061,9.899-11.879,12.728C457.924,646.255,453.54,647.81,449.864,647.81
		L449.864,647.81z M457.359,617.124c-1.697,0.989-11.455,12.303-16.546,18.808c-2.828,3.677-2.404,3.818-0.424,3.535
		c4.525-0.849,4.525-1.132,7.07-4.525c4.525-6.505,9.051-12.444,15.272-19.939c1.414-1.555,1.414-2.121,0.707-2.121
		c-0.849,0-2.97,1.132-3.959,1.839c-2.404,1.696-5.516,3.252-8.485,4.808c-4.525,2.404-4.808,1.979-4.666,2.404
		c0.141,0.424,2.545,0,4.666-1.132C452.975,619.81,455.378,618.396,457.359,617.124 M408.995,632.678
		c1.131-1.979,3.677-5.091,5.232-6.505c1.979-1.838,3.394-2.828,4.242-2.828s1.272,0.424,1.131,1.414
		c-0.141,1.414-1.556,3.394-3.959,5.091C413.662,631.123,410.975,632.113,408.995,632.678 M410.126,638.194
		c-1.414,0-2.263-0.849-2.263-2.263c0-0.566,0.142-1.414,0.566-2.263c2.263-0.565,5.515-1.697,8.343-3.111
		c2.97-1.414,6.081-3.394,6.223-5.939c0.142-1.272-0.707-2.687-2.829-2.687h-0.141c-2.688,0-5.516,1.272-8.344,2.687
		c-1.838,0.99-3.677,2.121-4.808,2.97c-1.414,1.132-2.404,1.697-3.677,2.97c-0.425,0.425-0.849,0.849-0.565,1.132
		c0.141,0.141,0.424,0.141,0.989-0.283c0.566-0.424,1.697-1.414,1.98-1.697l0.141,0.142c-1.979,2.404-2.828,4.101-2.97,6.081
		c-0.141,2.545,1.556,3.959,5.232,3.959c3.253,0,6.93-1.272,11.03-3.959c1.697-1.132,4.809-3.677,6.081-4.809
		c0.565-0.424,0.989-0.989,0.849-1.272c-0.142-0.142-0.425-0.142-1.132,0.424c-1.838,1.697-4.101,3.395-5.939,4.667
		C414.652,637.487,411.4,638.194,410.126,638.194 M387.36,639.608c3.252,0,7.919-1.839,11.312-4.243
		c1.697-1.131,4.525-3.535,5.798-4.666c0.565-0.565,0.99-0.99,0.849-1.272c-0.142-0.142-0.424-0.142-1.131,0.424
		c-1.556,1.414-3.96,3.394-5.799,4.667c-4.242,2.97-7.636,3.535-8.908,3.535c-1.556,0-2.404-0.849-2.263-2.263
		c0.282-2.404,2.828-6.081,5.515-8.626c2.688-2.828,4.949-4.242,6.081-4.102c1.131,0.142,0.849,1.414-0.283,3.253
		c-0.849,1.414-0.849,2.828,0.849,2.828c1.272,0,2.97-1.414,3.253-3.253c0.424-1.838-0.425-3.252-2.688-3.676
		c-2.545-0.425-5.656,0.848-8.909,2.687c-1.696,0.849-3.676,2.121-4.666,2.97c-1.414,1.131-2.404,1.696-3.677,2.97
		c-0.424,0.424-0.849,0.849-0.565,1.131c0.142,0.142,0.707-0.142,1.272-0.565s1.414-1.131,1.697-1.414l0.142,0.142
		c-1.556,1.838-2.688,3.959-2.829,5.798C381.844,638.194,383.683,639.608,387.36,639.608L387.36,639.608z M369.4,639.325
		c2.97,0,6.788-2.404,8.768-3.959c1.979-1.556,4.949-4.243,5.798-5.091c0.707-0.707,0.99-1.132,0.849-1.273
		c-0.142-0.141-0.424-0.141-1.272,0.566c-1.132,0.989-2.97,2.687-4.667,3.959c-2.121,1.697-3.535,2.404-4.666,2.97
		c-0.849,0.424-1.839,0.849-2.404,0.424c-0.424-0.282-0.424-0.848,0.424-2.121c0.425-0.849,1.697-2.403,3.253-4.242
		c1.556-1.979,3.677-4.242,3.959-5.939c0.142-1.696-0.989-2.687-2.969-2.687c-2.97,0-7.213,2.687-10.606,5.232
		c-3.394,2.545-6.646,5.373-8.909,7.354l-0.142-0.142c1.132-1.556,3.111-4.242,4.525-6.081c1.272-1.696,1.979-2.97,1.979-4.242
		c0-1.131-0.565-2.121-2.403-2.121c-1.979,0-3.96,1.131-6.646,3.252c-1.697,1.415-3.96,3.395-5.091,4.525
		c-1.132,1.132-1.697,1.556-1.414,1.839c0.282,0.282,0.707,0,1.697-0.849c1.414-1.272,2.969-2.687,4.242-3.677
		c1.131-0.99,2.687-1.979,3.817-2.687c0.566-0.283,1.132-0.425,1.415-0.142c0.141,0.282,0,0.849-0.708,1.697
		c-1.131,1.414-2.828,3.677-3.959,5.091c-1.556,1.979-3.677,5.231-4.242,6.505c-0.849,1.414-0.142,1.556,1.272,1.556
		c1.131,0,1.697-0.142,2.545-0.849c4.243-3.253,6.646-5.516,10.89-8.909c3.11-2.404,5.798-4.101,7.636-4.949
		c0.99-0.425,1.979-0.849,2.546-0.566c0.424,0.283,0.282,0.849-0.142,1.415c-1.132,1.414-2.688,2.97-4.102,4.808
		c-1.838,2.263-3.959,4.667-4.101,6.788C366.288,638.476,367.42,639.325,369.4,639.325 M341.259,624.901
		c-1.556,1.414-5.374,5.374-7.354,8.343c-0.849,1.132-1.414,2.404-1.414,3.677c0,1.556,0.849,2.546,2.97,2.546
		c3.252,0,6.505-2.404,8.484-3.96s4.384-3.677,5.516-4.808c0.282-0.283,1.414-1.272,1.131-1.556s-0.707,0.142-1.556,0.849
		c-1.556,1.414-2.404,2.263-4.525,3.959c-1.696,1.414-3.252,2.404-4.242,2.97c-0.99,0.425-1.838,0.707-2.404,0.283
		c-0.424-0.424-0.282-1.131,0.283-2.121s1.697-2.687,3.394-4.808c1.98-2.404,3.535-4.243,5.232-6.223
		c1.132-1.272,0.99-1.556-1.131-1.556c-1.839,0-3.111,0.425-5.657,2.121c-2.403,1.556-5.798,4.525-6.929,5.516
		c-1.131,0.989-1.272,1.414-1.131,1.556c0.282,0.141,0.707-0.142,1.414-0.849c0.989-0.849,1.979-1.697,3.535-2.97
		C338.572,626.598,340.552,625.183,341.259,624.901 M354.834,609.204c-1.838,0-3.252,0.425-3.959,1.839
		c-0.425,1.272-0.425,2.687,0.141,3.252c0.99,0,3.395-1.131,4.525-2.687C356.814,610.194,356.107,609.204,354.834,609.204
		L354.834,609.204z M322.592,636.78c1.132-0.849,2.546-2.688,3.111-3.96c1.132-2.687,0.99-5.232,0.849-8.061
		c0-1.131-0.142-1.838,0.707-2.687c0.424-0.425,1.414-0.849,2.404-1.414c1.272-0.849,2.687-1.98,0.424-1.98
		c-0.707,0-1.697,0.283-2.828,1.132c-0.707,0.424-1.414,1.272-1.556,1.697c-2.263,1.979-3.959,3.394-5.798,4.666
		c-1.556,1.132-3.111,2.121-4.101,2.687c-0.425,0.283-0.566,0.425-0.425,0.849c0.142,0.283,0.565,0.142,0.99-0.142
		c0.849-0.424,2.404-1.414,3.677-2.403c1.697-1.132,3.677-2.688,4.666-3.677v0.142c-1.131,1.272-2.828,7.07-4.524,9.898
		c-2.121,3.677-4.525,5.232-6.505,5.232c-1.697,0-2.97-0.849-2.829-2.404c0.142-1.414,1.415-2.404,2.263-2.97
		c1.273-0.707,1.98-1.414,2.121-2.403c0.142-1.132-0.424-1.98-1.838-2.122c-2.404-0.141-4.525,2.263-4.949,5.091
		c-0.425,2.688,0.707,5.799,5.798,5.799c2.97,0,6.505-0.99,8.202-1.697c1.838-0.849,3.959-1.839,6.08-3.253s3.96-2.97,4.949-3.959
		c0.849-0.849,1.273-1.414,1.132-1.556c-0.283-0.283-0.849,0.142-1.272,0.565c-1.697,1.414-3.677,3.253-6.505,4.808
		C325.42,635.507,323.724,636.355,322.592,636.78 M292.754,629.143c0-0.283-0.565-0.424-1.555-0.424
		c-6.788-0.142-33.374-0.566-42.424-0.849c-1.556-0.142-1.98,0.565-1.98,1.272c-0.141,0.849,0.425,1.132,2.263,1.132
		c8.909-0.142,35.495-0.425,42.424-0.566C292.189,629.709,292.754,629.568,292.754,629.143L292.754,629.143z"/>
</g>
</svg>
