<?xml version="1.0" encoding="utf-8"?>
<!-- Generator: Adobe Illustrator 16.0.0, SVG Export Plug-In . SVG Version: 6.00 Build 0)  -->
<!DOCTYPE svg PUBLIC "-//W3C//DTD SVG 1.1//EN" "http://www.w3.org/Graphics/SVG/1.1/DTD/svg11.dtd">
<svg version="1.1" id="Laag_1" xmlns="http://www.w3.org/2000/svg" xmlns:xlink="http://www.w3.org/1999/xlink" x="0px" y="0px"
	 width="420px" height="420px" viewBox="0 0 420 420" enable-background="new 0 0 420 420" xml:space="preserve">
<path fill="#003552" d="M134.9,207.7l14.5-13.6h10.9l-15.2,13.6l7.5,17.2H141L134.9,207.7 M132.8,208.6l-4.6,16.4h-9.3l8.7-30.8h9.3
	l-3.8,13.5"/>
<path fill="#003552" d="M29.4,212.5c-0.4,1.3-3.5,7.6,1,7.2c3.3-0.3,4.2-3,4.6-4.6l5.8-20.7h9.3l-5.8,20.4c-0.4,1.3-1.6,5.1-4.3,7.4
	c-3.8,3.1-8.4,3.7-11.4,3.7c-3.9,0-8-0.9-9.5-4.2c-0.9-2,0.1-6.9,1-9.2H29.4"/>
<path fill="#003552" d="M225,212.5c-0.4,1.3-3.5,7.6,1,7.2c3.3-0.3,4.2-3,4.6-4.6l5.8-20.7h9.3l-5.8,20.4c-0.4,1.3-1.6,5.1-4.3,7.4
	c-3.8,3.1-8.4,3.7-11.4,3.7c-3.9,0-8-0.9-9.5-4.2c-0.9-2,0.1-6.9,1-9.2H225"/>
<path fill="#003552" d="M43.9,225.2H53l4-6.2h13.3l0.5,6.2h10.4l-4.4-30.8H65.6L43.9,225.2 M60.8,213.4l8.2-12.9h0.1l0.6,12.9H60.8z
	"/>
<path fill="#003552" d="M110,204.2c0.5-3.1-1.5-4.3-4.2-4.3c-5.5,0-8.6,4.7-10.2,10.4c-0.5,1.9-2.7,9.6,4.4,9.6
	c4.9,0,6.3-3.3,6.8-4.5h9.5c-2.8,9.6-13.5,10.4-17.9,10.4c-3.2,0-8.7-0.5-11.4-4.1c-2.6-3.6-1.9-8.5-1-11.7
	c1.2-4.2,3.4-8.4,7.5-11.7c4.4-3.6,9-4.5,13.8-4.5c5.4,0,9.1,1.2,11,3.7c1.9,2.7,1.2,5.4,0.9,6.6H110"/>
<path fill="#003552" d="M246.1,210c-3.2,11.5,3.7,16,12.5,16c7.9,0,18.3-3.8,21.8-16c2.1-7.5,1-16.3-12.2-16.3
	c-2.4,0-8.8,0.3-14.1,4.3C248.8,201.8,246.7,207.9,246.1,210 M255.6,209.9c1.5-5.3,4.5-10.1,10.6-10.1c2,0,4,0.5,4.9,2.2
	c0.6,1.4,1.1,3.5-0.1,7.8s-3.9,9.9-10.5,9.9C254.4,219.7,254.2,214.8,255.6,209.9z"/>
<polyline fill="#003552" points="289.9,194.5 302.6,194.5 307.3,217.4 313.7,194.5 321.7,194.5 313,225.2 300.6,225.2 296,201.3 
	289.3,225.2 281.2,225.2 289.9,194.5 "/>
<polyline fill="#003552" points="328.2,194.6 353.1,194.6 351.4,200.4 335.6,200.4 333.8,206.8 348.7,206.8 347,212.7 332.1,212.7 
	330.3,219.3 346.4,219.3 344.7,225.2 319.5,225.2 328.2,194.6 "/>
<path fill="#003552" d="M360.9,215.4c-0.3,1.2-1.2,4.8,4.2,4.8c0.8,0,4.9,0,5.9-3.5c0.4-1.4,0-2.4-2-3l-7.6-2
	c-2.1-0.6-7.6-2-5.8-8.4c1.4-5,6.8-9.6,16.7-9.6c12.9,0,11.6,6.5,10.8,9.8h-9.3c0.3-0.9,1.2-4.3-3.2-4.3c-2.7,0-4.8,1.4-5.3,3.2
	c-0.6,2.3,1.2,2.8,2.4,3.2l5.8,1.5c4.1,1.1,9,2.3,7.1,8.9c-1.9,6.9-9.1,9.9-17.4,9.9c-3.4,0-8.8-0.5-11-3.7
	c-1.7-2.5-0.9-5.5-0.6-6.8H360.9"/>
<path fill="#003552" d="M394.1,199.1c0.8,0,1.5-0.1,1.7-0.7s-0.6-0.7-1.2-0.7h-1.2l-0.4,1.4H394.1 M393.7,199.8h-1l-0.6,2.1H391
	l1.3-4.8h1.8c1.7,0,2.4,0.2,2.3,1.3c0,0.9-1,1.3-1.8,1.4l1.2,2.1h-1.2L393.7,199.8z M395.2,196.1c-2.4,0-4.7,1.4-5.2,3.4
	c-0.5,1.9,1,3.3,3.3,3.3c2.4,0,3.9-1.4,4.4-3.3C398.3,197.6,397.5,196.1,395.2,196.1z M395.4,195.3c2.9,0,4.3,1.7,3.6,4.2
	s-3,4.2-5.9,4.2c-2.9,0-5-1.7-4.3-4.2C389.4,197,392.5,195.3,395.4,195.3z"/>
<path fill="#003552" d="M212.8,194.9c2.3-1.6-44.8-1.6-43.4,0c-1.4-1.6-10.7,31.3-8.4,29.7c-2.3,1.6,44.8,1.6,43.4,0
	C205.7,226.2,215,193.3,212.8,194.9z M203.3,212.5c-0.4,1.1-1.5,1.1-1.5,1.1h-22.1l0.7-1.6c0,0,6.1,0,12.2,0c0,0,0.8,0,1.4-0.9
	l0.7-1.7c4.9,0,9.9,0,9.9,0L203.3,212.5z M205.1,208.2h-20.8c-3.9,0-4.5,2.7-4.5,2.7l-1.1,2.7h-11.6l2.5-5.8c0,0,1.3-3,5.3-2.9h31.5
	L205.1,208.2z"/>
</svg>
