<?xml version="1.0" encoding="utf-8"?>
<!-- Generator: Adobe Illustrator 16.0.0, SVG Export Plug-In . SVG Version: 6.00 Build 0)  -->
<!DOCTYPE svg PUBLIC "-//W3C//DTD SVG 1.1//EN" "http://www.w3.org/Graphics/SVG/1.1/DTD/svg11.dtd">
<svg version="1.1" id="Layer_1" xmlns="http://www.w3.org/2000/svg" xmlns:xlink="http://www.w3.org/1999/xlink" x="0px" y="0px" viewBox="0 0 420 420" enable-background="new 0 0 420 420" xml:space="preserve">
<path fill="#003552" d="M0.4,259.4v11.5h1.3c0.7-0.9,1.7-1.4,2.9-1.4c0.7,0,1.8,0.2,3.1,0.7c1.4,0.5,2.3,0.8,2.9,1
	c0.6,0.2,1.4,0.2,2.5,0.2c1.9,0,3.7-0.5,5.3-1.4c1.6-0.9,2.8-2.2,3.7-3.8c0.9-1.6,1.3-3.2,1.3-5.1c0-1.9-0.5-3.6-1.4-5.1
	c-0.9-1.5-2.3-2.7-4-3.5c-0.9-0.5-2.2-0.8-3.8-1.1c-1.6-0.3-3.4-0.6-5.4-1c-2-0.4-3.5-1-4.5-1.8c-1-0.8-1.5-1.9-1.5-3.5
	c0-1.1,0.3-2,0.8-2.9c0.6-0.9,1.3-1.6,2.2-2.1s1.9-0.8,3-0.8c2.2,0,4.1,0.7,5.7,2.2c1.6,1.5,3.2,3.6,4.6,6.3h1.6l-1-9.3h-1.7
	c-0.7,0.4-1.5,0.5-2.3,0.5c-0.6,0-1.7-0.1-3.1-0.4c-1.4-0.3-2.6-0.4-3.6-0.4c-1.4,0-2.6,0.2-3.7,0.7c-1.1,0.5-2,1.2-2.8,2
	c-0.8,0.9-1.4,1.8-1.8,3c-0.4,1.1-0.6,2.3-0.6,3.5c0,1.3,0.2,2.4,0.7,3.6c0.5,1.1,1.2,2.1,2.1,2.8c0.9,0.8,2,1.4,3.3,1.9
	c0.8,0.3,2.3,0.6,4.3,0.9c2,0.3,3.6,0.7,4.9,1.1c1.2,0.4,2.3,1.1,3.2,2c0.9,1,1.3,2.3,1.3,4c0,1.8-0.7,3.3-2,4.5
	c-1.3,1.2-2.9,1.8-4.8,1.8c-1.5,0-2.9-0.4-4.3-1.2c-1.4-0.8-2.6-2-3.8-3.6c-1.2-1.6-2.2-3.6-3-6H0.4z M18.1,244.8
	c-0.2-0.2-0.5-0.6-1-1.3c-0.5-0.7-1-1.3-1.4-1.7c-0.5-0.5-1-0.9-1.6-1.3c0.6,0.2,1.2,0.2,1.8,0.2c0.5,0,1-0.1,1.5-0.2L18.1,244.8z
	 M1.1,263.6c0.4,0.9,0.7,1.6,1,2.2c0.3,0.5,0.6,1,0.8,1.2c0.2,0.3,0.6,0.7,1.1,1.3c-0.8,0-1.3,0-1.7,0.2c-0.4,0.2-0.8,0.5-1.2,1.1
	V263.6z M1.1,245c0,0.2,0,0.4,0,0.6c0,0.2,0,0.5,0,0.8c0,1.8,0.6,3.4,1.7,4.7c1.1,1.4,2.7,2.3,4.9,2.9c0.1,0,1.3,0.2,3.6,0.6
	c2.3,0.4,4.2,0.9,5.5,1.4s2.5,1.2,3.4,2.3c0.9,1,1.4,2.4,1.4,4.2c0,1.7-0.6,3.2-1.8,4.5c0.6-1.2,0.9-2.3,0.9-3.4
	c0-1.5-0.4-2.7-1.2-3.8c-0.8-1.1-1.9-1.9-3.4-2.4c-0.8-0.3-2.2-0.6-4.3-1c-2.1-0.3-3.6-0.6-4.7-0.9c-1.1-0.2-2-0.7-2.9-1.3
	c-0.7-0.5-1.3-1-1.8-1.7c-0.5-0.7-0.9-1.5-1.2-2.3c-0.3-0.8-0.4-1.6-0.4-2.4C0.7,247.1,0.9,246.2,1.1,245z M59.3,238.6
	c-0.8,0.8-1.8,1.3-3,1.3c-0.5,0-0.9,0-1.2-0.1c-0.4-0.1-1-0.3-2-0.5c-1-0.3-1.9-0.5-2.6-0.6c-0.7-0.1-1.5-0.2-2.4-0.2
	c-2.2,0-4.4,0.4-6.3,1.2c-2,0.8-3.7,2-5.3,3.4c-1.5,1.5-2.7,3.3-3.6,5.3c-0.9,2.1-1.3,4.3-1.3,6.7c0,2.2,0.4,4.3,1.2,6.3
	c0.8,2,1.9,3.8,3.4,5.3s3.2,2.7,5.3,3.5c2,0.8,4.2,1.3,6.7,1.3c3.1,0,5.8-0.6,8.2-1.9c2.4-1.2,4.4-3.1,6.1-5.5l-1.3-0.7
	c-1,1.4-2.1,2.6-3.3,3.5c-1.2,0.9-2.4,1.6-3.7,2.1c-1.3,0.5-2.7,0.7-4,0.7c-2.3,0-4.3-0.6-6.1-1.9s-3.2-3.1-4.2-5.4
	c-1-2.3-1.5-4.9-1.5-7.9c0-2.1,0.3-4.1,0.8-6c0.5-1.9,1.2-3.4,2.1-4.7c0.9-1.3,2-2.3,3.3-3c1.3-0.7,2.7-1,4.3-1
	c1.2,0,2.2,0.2,3.2,0.6c1,0.4,2,0.9,2.9,1.7s1.8,1.7,2.6,2.8c0.8,1.1,1.6,2.4,2.3,3.9h1.4v-10H59.3z M58.4,244.3
	c-0.5-0.6-1-1.2-1.5-1.7c-0.5-0.5-1.2-1.1-1.9-1.7c0.3,0.1,0.7,0.1,1.1,0.1c0.8,0,1.5-0.2,2.2-0.5L58.4,244.3z M43.5,239.6
	c-1.4,0.9-2.7,1.8-3.8,2.7c-1.1,0.9-2.1,2.1-3.1,3.5c-0.9,1.3-1.6,2.7-2.1,4.4c-0.5,1.7-0.7,3.2-0.7,4.7c0,1.8,0.3,3.6,0.9,5.2
	c0.6,1.7,1.4,3.2,2.6,4.7c1.1,1.4,2.5,2.7,4.2,3.7c1.6,1,3.5,1.8,5.5,2.3c-3.1-0.3-5.7-1.3-7.9-2.8c-2.2-1.5-3.9-3.4-5-5.7
	s-1.7-4.8-1.7-7.5c0-1.1,0.1-2.3,0.4-3.5c0.2-1.2,0.6-2.3,1.1-3.3c0.5-1,1-2,1.7-2.9c0.7-0.9,1.4-1.7,2.3-2.4
	C39.3,241.6,41.2,240.5,43.5,239.6z M69.6,254.9c0,2.4,0.4,4.6,1.2,6.7c0.8,2.1,1.9,3.8,3.4,5.3c1.5,1.5,3.2,2.6,5.2,3.4
	c2,0.8,4.2,1.2,6.5,1.2c2.5,0,4.8-0.4,6.9-1.3c2.1-0.8,4-2,5.6-3.5c1.6-1.5,2.8-3.3,3.7-5.3s1.3-4.2,1.3-6.6c0-2.2-0.4-4.3-1.2-6.3
	c-0.8-2-1.9-3.7-3.4-5.2s-3.2-2.7-5.3-3.6c-2.1-0.9-4.4-1.3-6.9-1.3c-1.5,0-2.9,0.1-4.2,0.3c-1.3,0.2-2.5,0.6-3.7,1.1
	c-1.1,0.5-2.2,1.2-3.2,2c-0.9,0.7-1.7,1.6-2.5,2.5c-0.8,1-1.4,2-1.9,3.1s-0.9,2.3-1.1,3.5C69.7,252.2,69.6,253.5,69.6,254.9z
	 M75.8,252.5c0-1.9,0.2-3.7,0.7-5.2c0.5-1.6,1.1-2.9,2-4c0.8-1.1,1.9-2,3.1-2.6s2.5-0.9,3.9-0.9c1.6,0,3.1,0.4,4.5,1.2
	c1.4,0.8,2.6,1.9,3.6,3.4c1,1.5,1.8,3.2,2.4,5.3c0.6,2.1,0.9,4.4,0.9,6.8c0,2.3-0.3,4.2-0.8,5.9s-1.2,3.1-2.1,4.3
	c-0.9,1.2-2,2-3.2,2.6c-1.2,0.6-2.5,0.9-3.8,0.9c-1.6,0-3.1-0.4-4.5-1.3c-1.4-0.8-2.6-2-3.6-3.6c-1-1.6-1.8-3.5-2.3-5.7
	C76.1,257.5,75.8,255.1,75.8,252.5z M78,241c-1.4,1.3-2.5,2.7-3.4,4c-0.9,1.4-1.6,2.8-2.1,4.3c-0.5,1.5-0.7,3.3-0.7,5.2
	c0,3.8,0.9,7,2.6,9.7c1.7,2.6,4.1,4.7,7,6.2c-2.4-0.8-4.5-1.9-6.1-3.4c-1.6-1.5-2.9-3.2-3.7-5.3c-0.8-2.1-1.3-4.3-1.3-6.8
	c0-3,0.6-5.7,1.9-8.1C73.6,244.5,75.5,242.5,78,241z M89.7,240c1.9,0.4,3.6,1.4,5,2.9c1.4,1.5,2.5,3.3,3.2,5.6
	c0.7,2.3,1.1,4.7,1.1,7.4c0,1.9-0.2,3.6-0.6,5.1s-1,2.8-1.7,4c-0.8,1.2-1.8,2.2-3.1,3.2c1.2-1.4,2.2-3,2.9-4.9c0.7-1.8,1-4,1-6.5
	c0-2.6-0.3-5.1-0.9-7.3c-0.6-2.2-1.5-4.1-2.7-5.7S91.4,240.9,89.7,240z M112,239.1l-1.6,7.4h1.4c1-1.3,1.8-2.2,2.4-2.8
	s1.2-1.2,2-1.7c0.8-0.5,1.8-0.9,3-1.3c1.2-0.3,2.6-0.5,4.2-0.5v25.4c0,1.2-0.2,2-0.5,2.6c-0.4,0.5-0.9,0.9-1.6,1.1
	c-0.7,0.2-1.7,0.3-3,0.3v1.2h15.8v-1.2c-1.3,0-2.3-0.2-3-0.4c-0.7-0.2-1.2-0.6-1.6-1.1c-0.3-0.5-0.5-1.3-0.5-2.3v-25.6
	c1.8,0,3.3,0.1,4.4,0.3c1.1,0.2,2.3,0.7,3.6,1.6c1.3,0.9,2.5,2.3,3.6,4.3h1.6l-1.6-7.4H112z M139.7,243.9c-0.8-0.9-1.6-1.6-2.4-2.2
	c-0.8-0.6-1.7-1-2.9-1.4h4.2L139.7,243.9z M125.6,265.2c0,1.6-0.2,2.8-0.5,3.5s-1,1-2.1,1h-0.5c0.6-0.4,1-0.9,1.3-1.5
	c0.2-0.6,0.3-1.3,0.3-2.2v-25.6c0.6,0,0.9,0.3,1.1,0.7c0.2,0.4,0.3,1.1,0.3,2V265.2z M116.2,240.3c-1.1,0.6-2,1.1-2.5,1.6
	c-0.6,0.5-1.2,1.2-2,2.2l0.9-3.8H116.2z M177.1,238.6c-0.8,0.8-1.8,1.3-3,1.3c-0.5,0-0.9,0-1.2-0.1c-0.4-0.1-1-0.3-2-0.5
	c-1-0.3-1.9-0.5-2.6-0.6c-0.7-0.1-1.5-0.2-2.4-0.2c-2.2,0-4.4,0.4-6.3,1.2c-2,0.8-3.7,2-5.3,3.4c-1.5,1.5-2.7,3.3-3.6,5.3
	c-0.9,2.1-1.3,4.3-1.3,6.7c0,2.2,0.4,4.3,1.2,6.3c0.8,2,1.9,3.8,3.4,5.3c1.5,1.5,3.2,2.7,5.3,3.5c2,0.8,4.2,1.3,6.7,1.3
	c3.1,0,5.8-0.6,8.2-1.9s4.4-3.1,6.1-5.5l-1.3-0.7c-1,1.4-2.1,2.6-3.3,3.5c-1.2,0.9-2.4,1.6-3.7,2.1c-1.3,0.5-2.6,0.7-4,0.7
	c-2.3,0-4.3-0.6-6.1-1.9c-1.8-1.3-3.2-3.1-4.2-5.4c-1-2.3-1.5-4.9-1.5-7.9c0-2.1,0.3-4.1,0.8-6c0.5-1.9,1.2-3.4,2.1-4.7
	c0.9-1.3,2-2.3,3.3-3c1.3-0.7,2.7-1,4.3-1c1.2,0,2.2,0.2,3.2,0.6c1,0.4,2,0.9,2.9,1.7c0.9,0.7,1.8,1.7,2.6,2.8
	c0.8,1.1,1.6,2.4,2.3,3.9h1.4v-10H177.1z M176.2,244.3c-0.5-0.6-1-1.2-1.5-1.7c-0.5-0.5-1.2-1.1-1.9-1.7c0.3,0.1,0.7,0.1,1.1,0.1
	c0.8,0,1.5-0.2,2.2-0.5L176.2,244.3z M161.4,239.6c-1.4,0.9-2.7,1.8-3.8,2.7c-1.1,0.9-2.1,2.1-3.1,3.5c-0.9,1.3-1.6,2.7-2.1,4.4
	c-0.5,1.7-0.7,3.2-0.7,4.7c0,1.8,0.3,3.6,0.9,5.2c0.6,1.7,1.4,3.2,2.6,4.7c1.1,1.4,2.5,2.7,4.2,3.7s3.5,1.8,5.5,2.3
	c-3.1-0.3-5.7-1.3-7.9-2.8c-2.2-1.5-3.9-3.4-5-5.7c-1.1-2.3-1.7-4.8-1.7-7.5c0-1.1,0.1-2.3,0.4-3.5c0.2-1.2,0.6-2.3,1.1-3.3
	c0.5-1,1-2,1.7-2.9c0.7-0.9,1.4-1.7,2.3-2.4C157.1,241.6,159,240.5,161.4,239.6z M208.5,270.9h15.1v-1.2c-1.5,0-2.5-0.1-3.2-0.4
	c-0.7-0.3-1.1-0.8-1.3-1.4s-0.3-1.6-0.3-2.8v-19.7c0-1.5,0.1-2.7,0.3-3.3c0.2-0.7,0.6-1.1,1.2-1.4c0.6-0.2,1.7-0.4,3.2-0.4v-1.2
	h-15.1v1.2c1.4,0.1,2.4,0.2,3,0.4c0.6,0.2,1.1,0.5,1.3,1c0.3,0.5,0.4,1.3,0.4,2.4v9.5h-16v-8.3c0-1.5,0.1-2.5,0.2-3.2
	c0.2-0.7,0.6-1.1,1.2-1.4c0.6-0.3,1.7-0.5,3.2-0.5v-1.2h-15.1v1.2c1.8,0.1,3.1,0.3,3.8,0.8c0.7,0.4,1,1.4,1,2.8v21.2
	c0,1-0.1,1.8-0.2,2.4c-0.1,0.6-0.4,1-0.7,1.3c-0.3,0.3-0.8,0.5-1.4,0.6c-0.6,0.1-1.4,0.2-2.5,0.2v1.2h15.1v-1.2
	c-1.2-0.1-2.1-0.2-2.7-0.4c-0.6-0.1-1-0.4-1.3-0.7c-0.3-0.3-0.5-0.8-0.6-1.4c-0.1-0.6-0.1-1.4-0.1-2.5v-9.3h16v9.8
	c0,1.3-0.1,2.3-0.3,2.8s-0.6,1-1.2,1.2c-0.6,0.2-1.7,0.4-3.2,0.5V270.9z M214,243.8c0-1-0.1-1.8-0.3-2.3c-0.2-0.5-0.7-0.9-1.3-1.2
	h0.7c1.1,0,1.7,0.3,2,1c0.3,0.7,0.4,1.7,0.4,3.1v22.4c0,1-0.2,1.7-0.5,2.2c-0.4,0.5-0.9,0.7-1.8,0.7h-0.7c0.6-0.3,1-0.7,1.2-1.2
	c0.3-0.4,0.4-1.2,0.4-2.3V243.8z M192.3,244.1c0-1.2-0.1-2-0.4-2.6c-0.2-0.5-0.6-0.9-1.2-1.2c1-0.1,1.7,0.1,2.1,0.4
	c0.4,0.3,0.7,0.8,0.8,1.5c0.1,0.7,0.2,1.7,0.2,3.1v20.2c0,1.4-0.2,2.4-0.5,3.1c-0.4,0.7-1,1-1.8,1h-0.7c0.5-0.3,0.8-0.7,1.1-1.3
	c0.3-0.5,0.5-1.5,0.5-2.8V244.1z M241.4,271.5c1.6,0,3.3-0.4,5.2-1.3c1.8-0.9,3.6-2.1,5.1-3.8c0.9,1.6,2,2.8,3.1,3.7
	c1.2,0.9,2.3,1.4,3.5,1.4c0.9,0,1.8-0.2,2.6-0.6c0.8-0.4,1.6-1.1,2.3-1.9c0.7-0.8,1.3-2,1.9-3.3l-1.1-0.5c-1,1.8-2.1,2.7-3.2,2.7
	c-0.7,0-1.3-0.3-1.8-0.8s-1.3-1.5-2.3-2.9l-1.4-2.1c1.6-2.4,2.9-4.3,3.9-5.6c1-1.3,1.9-2.4,2.9-3.3c1-0.8,2-1.3,3.1-1.5v-1.2h-10.9
	v1.2c1,0,1.9,0.3,2.5,0.8c0.6,0.5,0.9,1.1,0.9,1.9c0,0.7-0.3,1.6-0.9,2.7c-0.6,1.1-1.4,2.4-2.5,3.8c-0.9-1.4-2-3-3.2-4.7
	s-2.7-3.5-4.5-5.5c1.6-1.2,2.7-2.1,3.4-2.6c0.7-0.5,1.3-1.2,1.8-1.9c0.5-0.7,0.8-1.5,0.8-2.3c0-0.5-0.1-1.1-0.4-1.7
	c-0.3-0.6-0.6-1.2-1.1-1.8s-1.1-1-1.7-1.4c-0.7-0.3-1.4-0.5-2.2-0.5c-0.9,0-1.9,0.3-3,0.8c-1.1,0.6-2.1,1.3-3.1,2.2
	c-1,0.9-1.7,1.8-2.3,2.8c-0.6,0.9-0.9,1.8-0.9,2.5c0,1.5,1.2,3.6,3.7,6.3c-1.3,0.9-2.6,1.9-3.9,3.1c-1,0.9-1.7,1.7-2.3,2.4
	c-0.6,0.7-1.1,1.5-1.4,2.4c-0.3,0.8-0.5,1.7-0.5,2.7c0,1.3,0.3,2.6,1,3.8s1.6,2.2,2.8,2.9C238.5,271.2,239.9,271.5,241.4,271.5z
	 M261.6,251.6c-1.3,0.8-2.3,1.8-3.2,3.2c0-0.1,0-0.2,0.1-0.3c0-0.1,0.1-0.2,0.1-0.3c0-1.2-0.5-2.1-1.6-2.6H261.6z M249.1,246.7
	c0-0.2,0.1-0.3,0.1-0.3c0-0.1,0-0.1,0-0.2s0-0.2,0-0.3c0-0.4-0.2-1-0.7-1.8c-0.5-0.8-1.1-1.6-1.9-2.2c-0.8-0.7-1.7-1-2.6-1.1
	c0.8-0.3,1.3-0.5,1.7-0.5c0.6,0,1.2,0.2,1.9,0.7c0.7,0.4,1.2,1,1.7,1.6s0.7,1.3,0.7,1.9C250,245.3,249.7,246,249.1,246.7z
	 M245.7,249.7c-0.6-0.6-1.1-1.1-1.5-1.5c-0.5-0.4-0.9-0.9-1.4-1.5c-0.5-0.6-0.9-1.1-1.1-1.5c-0.2-0.4-0.3-0.8-0.3-1.3
	c0-0.6,0.3-1.1,0.8-1.7c0.5-0.6,1.2-0.8,1.9-0.8c0.6,0,1.3,0.3,2,0.8c0.7,0.6,1.3,1.2,1.7,2c0.5,0.8,0.7,1.4,0.7,1.9
	C248.5,247.2,247.6,248.4,245.7,249.7z M262.1,269.2c-1.2,1-2.4,1.5-3.7,1.5c-0.8,0-1.6-0.2-2.3-0.6c-0.7-0.4-1.4-1-2-1.7
	c-0.6-0.7-1.3-1.6-1.9-2.6s-1.4-2.2-2.4-3.5c-1.2-1.8-2.4-3.4-3.5-4.8c-1.1-1.4-2.4-2.9-3.9-4.6c-1.5-1.7-2.5-2.9-3-3.8
	c-0.5-0.8-0.8-1.6-0.8-2.3c0-0.9,0.5-1.9,1.4-3c-0.3,0.8-0.5,1.4-0.5,1.7c0,0.8,0.3,1.6,0.8,2.4s1.5,2.1,3,3.8
	c1.5,1.7,2.8,3.2,3.9,4.6c1.1,1.4,2.4,3,3.7,4.9c1.8,2.6,3,4.3,3.6,5.1c0.6,0.9,1.4,1.6,2.3,2.3c0.9,0.7,1.9,1,3.1,1
	C260.5,269.7,261.3,269.5,262.1,269.2z M250.9,265.3c-1.7,1.9-3.6,2.9-5.6,2.9c-1.2,0-2.3-0.3-3.4-1c-1.1-0.7-2-1.6-2.6-2.7
	s-1-2.3-1-3.5c0-1.2,0.3-2.3,1-3.3c0.7-1,1.7-2.1,3.2-3.4c0.9,0.9,1.8,1.9,2.7,3c0.9,1.1,1.6,2,2.2,2.8c0.6,0.8,1.2,1.7,2,2.9
	C250,264,250.6,264.8,250.9,265.3z M243.2,270.6c-0.7,0.1-1.4,0.1-1.9,0.1c-1.2,0-2.3-0.3-3.4-0.9c-1.1-0.6-2-1.4-2.7-2.5
	c-0.7-1.1-1-2.3-1-3.6c0-1.1,0.2-2.1,0.7-3c0.4-0.8,1.1-1.7,1.9-2.5c-0.5,1-0.9,1.8-1,2.3c-0.2,0.5-0.3,1.2-0.3,2.1
	c0,2.1,0.7,3.9,2.1,5.3C239,269.4,240.9,270.3,243.2,270.6z M277.4,259.4v11.5h1.3c0.7-0.9,1.7-1.4,2.9-1.4c0.7,0,1.8,0.2,3.1,0.7
	s2.3,0.8,2.9,1c0.6,0.2,1.4,0.2,2.5,0.2c1.9,0,3.7-0.5,5.3-1.4s2.8-2.2,3.7-3.8c0.9-1.6,1.3-3.2,1.3-5.1c0-1.9-0.5-3.6-1.4-5.1
	c-0.9-1.5-2.3-2.7-4-3.5c-0.9-0.5-2.2-0.8-3.8-1.1c-1.6-0.3-3.4-0.6-5.4-1c-2-0.4-3.5-1-4.5-1.8c-1-0.8-1.5-1.9-1.5-3.5
	c0-1.1,0.3-2,0.8-2.9c0.6-0.9,1.3-1.6,2.2-2.1s1.9-0.8,3-0.8c2.2,0,4.1,0.7,5.7,2.2c1.6,1.5,3.2,3.6,4.6,6.3h1.6l-1-9.3H295
	c-0.7,0.4-1.5,0.5-2.3,0.5c-0.6,0-1.7-0.1-3.1-0.4c-1.4-0.3-2.6-0.4-3.6-0.4c-1.4,0-2.6,0.2-3.7,0.7c-1.1,0.5-2,1.2-2.8,2
	c-0.8,0.9-1.4,1.8-1.8,3c-0.4,1.1-0.6,2.3-0.6,3.5c0,1.3,0.2,2.4,0.7,3.6c0.5,1.1,1.2,2.1,2.1,2.8c0.9,0.8,2,1.4,3.3,1.9
	c0.8,0.3,2.3,0.6,4.3,0.9c2,0.3,3.6,0.7,4.9,1.1s2.3,1.1,3.2,2c0.9,1,1.3,2.3,1.3,4c0,1.8-0.7,3.3-2,4.5c-1.3,1.2-2.9,1.8-4.8,1.8
	c-1.5,0-2.9-0.4-4.3-1.2s-2.6-2-3.8-3.6c-1.2-1.6-2.2-3.6-3-6H277.4z M295.2,244.8c-0.2-0.2-0.5-0.6-1-1.3c-0.5-0.7-1-1.3-1.4-1.7
	c-0.5-0.5-1-0.9-1.6-1.3c0.6,0.2,1.2,0.2,1.8,0.2c0.5,0,1-0.1,1.5-0.2L295.2,244.8z M278.2,263.6c0.4,0.9,0.7,1.6,1,2.2
	c0.3,0.5,0.6,1,0.8,1.2c0.2,0.3,0.6,0.7,1.1,1.3c-0.8,0-1.3,0-1.7,0.2c-0.4,0.2-0.8,0.5-1.2,1.1V263.6z M278.2,245
	c0,0.2,0,0.4,0,0.6c0,0.2,0,0.5,0,0.8c0,1.8,0.6,3.4,1.7,4.7c1.1,1.4,2.7,2.3,4.9,2.9c0.1,0,1.3,0.2,3.6,0.6
	c2.3,0.4,4.2,0.9,5.5,1.4c1.3,0.5,2.5,1.2,3.4,2.3c0.9,1,1.4,2.4,1.4,4.2c0,1.7-0.6,3.2-1.8,4.5c0.6-1.2,0.9-2.3,0.9-3.4
	c0-1.5-0.4-2.7-1.2-3.8s-1.9-1.9-3.4-2.4c-0.8-0.3-2.2-0.6-4.3-1c-2.1-0.3-3.6-0.6-4.7-0.9c-1.1-0.2-2-0.7-2.9-1.3
	c-0.7-0.5-1.3-1-1.8-1.7s-0.9-1.5-1.2-2.3s-0.4-1.6-0.4-2.4C277.8,247.1,277.9,246.2,278.2,245z M308.7,254.9c0,2.4,0.4,4.6,1.2,6.7
	c0.8,2.1,1.9,3.8,3.4,5.3c1.4,1.5,3.2,2.6,5.2,3.4c2,0.8,4.2,1.2,6.5,1.2c2.5,0,4.8-0.4,6.9-1.3c2.1-0.8,4-2,5.6-3.5
	c1.6-1.5,2.8-3.3,3.7-5.3c0.9-2,1.3-4.2,1.3-6.6c0-2.2-0.4-4.3-1.2-6.3c-0.8-2-1.9-3.7-3.4-5.2c-1.5-1.5-3.2-2.7-5.3-3.6
	c-2.1-0.9-4.4-1.3-6.9-1.3c-1.5,0-2.9,0.1-4.2,0.3c-1.3,0.2-2.5,0.6-3.7,1.1c-1.1,0.5-2.2,1.2-3.2,2c-0.9,0.7-1.7,1.6-2.5,2.5
	c-0.8,1-1.4,2-1.9,3.1s-0.9,2.3-1.1,3.5C308.8,252.2,308.7,253.5,308.7,254.9z M314.9,252.5c0-1.9,0.2-3.7,0.7-5.2
	c0.5-1.6,1.1-2.9,2-4s1.9-2,3.1-2.6s2.5-0.9,3.9-0.9c1.6,0,3.1,0.4,4.5,1.2s2.6,1.9,3.6,3.4c1,1.5,1.8,3.2,2.4,5.3
	c0.6,2.1,0.9,4.4,0.9,6.8c0,2.3-0.3,4.2-0.8,5.9c-0.5,1.7-1.2,3.1-2.1,4.3c-0.9,1.2-2,2-3.2,2.6c-1.2,0.6-2.5,0.9-3.8,0.9
	c-1.6,0-3.1-0.4-4.5-1.3c-1.4-0.8-2.6-2-3.6-3.6s-1.8-3.5-2.3-5.7C315.2,257.5,314.9,255.1,314.9,252.5z M317,241
	c-1.4,1.3-2.5,2.7-3.4,4c-0.9,1.4-1.6,2.8-2.1,4.3c-0.5,1.5-0.7,3.3-0.7,5.2c0,3.8,0.9,7,2.6,9.7c1.7,2.6,4.1,4.7,7,6.2
	c-2.4-0.8-4.5-1.9-6.1-3.4c-1.6-1.5-2.9-3.2-3.7-5.3c-0.8-2.1-1.3-4.3-1.3-6.8c0-3,0.6-5.7,1.9-8.1C312.6,244.5,314.5,242.5,317,241
	z M328.8,240c1.9,0.4,3.6,1.4,5,2.9c1.4,1.5,2.5,3.3,3.2,5.6c0.7,2.3,1.1,4.7,1.1,7.4c0,1.9-0.2,3.6-0.6,5.1c-0.4,1.5-1,2.8-1.7,4
	c-0.8,1.2-1.8,2.2-3.1,3.2c1.2-1.4,2.2-3,2.9-4.9c0.7-1.8,1-4,1-6.5c0-2.6-0.3-5.1-0.9-7.3c-0.6-2.2-1.5-4.1-2.7-5.7
	C331.9,242.2,330.5,240.9,328.8,240z M366.7,270.9c2.5,0,4.9-0.4,7-1.2c2.1-0.8,4-1.9,5.5-3.3c1.5-1.4,2.7-3.1,3.5-5
	c0.8-1.9,1.2-4,1.2-6.2c0-2.3-0.4-4.4-1.2-6.4c-0.8-2-1.9-3.7-3.4-5.2c-1.5-1.5-3.2-2.6-5.3-3.4s-4.3-1.2-6.7-1.2h-18.6v1.2
	c1.6,0.1,2.8,0.4,3.5,0.7c0.7,0.4,1.1,1.1,1.1,2.3V266c0,1-0.1,1.7-0.4,2.3c-0.3,0.5-0.7,0.9-1.3,1c-0.6,0.2-1.6,0.3-2.8,0.3v1.2
	H366.7z M355.6,266.1c0,1.2-0.2,2.1-0.7,2.7c-0.5,0.5-1.2,0.8-2.4,0.8c0.4-0.2,0.7-0.4,0.9-0.7s0.4-0.7,0.5-1.2
	c0.1-0.5,0.2-1.3,0.2-2.2v-21.7c0-1-0.1-1.8-0.3-2.2c-0.2-0.5-0.6-0.9-1.3-1.2c1.4,0,2.2,0.4,2.6,1.1c0.3,0.7,0.5,2,0.5,3.8V266.1z
	 M359.1,246.8c0-2,0.1-3.3,0.2-4.1c0.1-0.8,0.5-1.4,1-1.8c0.6-0.4,1.6-0.6,3-0.6c2.1,0,3.8,0.2,5.4,0.7s2.9,1.2,4.1,2.3
	c3.1,2.7,4.7,6.7,4.7,12.1c0,1.8-0.2,3.4-0.5,4.9c-0.4,1.5-0.9,2.8-1.7,3.9c-0.8,1.2-1.9,2.2-3.2,3.2c-1.2,0.8-2.4,1.4-3.7,1.8
	c-1.3,0.3-2.8,0.5-4.4,0.5c-1.5,0-2.6-0.1-3.3-0.4c-0.7-0.3-1.1-0.7-1.3-1.3c-0.2-0.6-0.3-1.5-0.3-2.9V246.8z M369.6,269.7
	c2-0.8,3.6-1.9,4.9-3.2c1.3-1.3,2.2-2.9,2.9-4.7c0.6-1.8,0.9-3.9,0.9-6.2c0-7.8-2.9-12.8-8.6-15.1c0.9,0.2,1.7,0.4,2.5,0.6
	c0.8,0.2,1.5,0.6,2.2,1.1c1.2,0.8,2.2,1.8,3,3.1c0.8,1.3,1.5,2.8,1.9,4.5c0.4,1.7,0.6,3.6,0.6,5.7c0,2.9-0.4,5.4-1.3,7.4
	s-2.1,3.7-3.6,4.8C373.3,268.8,371.5,269.5,369.6,269.7z M409.4,265.3c0.4,1,0.7,1.8,0.7,2.4c0,0.7-0.3,1.2-0.9,1.4
	c-0.6,0.2-1.4,0.4-2.6,0.5v1.2H420v-1.2c-1.2-0.3-2.2-0.7-2.8-1.2c-0.6-0.5-1.2-1.6-1.8-3.1L405,238.8h-2.1l-5.4,1.8v1.1
	c0.9,0.1,1.5,0.3,2,0.5c0.5,0.2,0.9,0.7,1.3,1.4l-7.8,20c-1.4,3.7-3.3,5.7-5.6,6v1.2h10.4v-1.2c-1.1,0-2-0.5-2.7-1.2
	c-0.6-0.8-1-1.7-1-2.7c0-1.1,0.2-2.1,0.6-3l1.5-3.8h10.7L409.4,265.3z M396.8,257.5l4.8-12.2l4.8,12.2H396.8z M411.5,264.5
	c0.5,1.4,0.8,2.5,0.8,3.2c0,0.5-0.2,1-0.6,1.3c-0.4,0.4-0.9,0.6-1.6,0.6h-0.5c0.5-0.4,0.8-0.7,1-0.9s0.2-0.5,0.2-0.9
	c0-0.7-0.2-1.6-0.7-2.8l-8-20.4c-0.3-0.9-0.7-1.5-1-2.1c-0.4-0.5-0.9-0.9-1.6-1.2c0.3-0.1,0.6-0.1,1.1-0.1c0.7,0,1.3,0.2,1.7,0.6
	c0.4,0.4,0.8,1.2,1.2,2.2L411.5,264.5z M389.8,269.7c0.7-0.5,1.3-1.1,1.7-1.6c0.4-0.5,0.8-1.2,1.2-1.9c0,0.2,0,0.4,0,0.7
	c0,1.1,0.5,2,1.4,2.8H389.8z M175.7,187.5c1.5,0,58.1,0,66.6,0.1c1.8,0,1.4-0.2,2.8,0.7c1.1,0.7,1.1,0.6,2.4,0.6h10
	c2.1,0,2-0.7,1.5-2.4c-0.3-1-1-3.4-1.4-4c-0.6-0.9-1.4-1.5-2.6-1.5h-91.3c-2.4,0.1-3.6,1.4-4.2,2.6c-0.5,0.9-0.7,2.4-0.9,3.4
	c-0.4,1.9,1,1.9,3.5,1.9c0,0,7.8,0,8.7,0c0.8,0,1.7,0,2.1-0.7C173.7,187.2,175,187.5,175.7,187.5z M161,185.7c0-0.3,0.3-1.4,0.5-1.8
	c0.7-1.3,1.5-1.1,2.9-1.1h90.2c1.1,0,1.8,0.3,2,1.3c0.1,0.4,0.5,1.9,0.5,2c-0.1,0.3-0.3,0.8-0.8,0.8h-8.6c-0.9,0-0.8,0.1-1.4-0.5
	c-0.9-0.9-1.9-1-3.2-1c-8.6,0-67.1,0-68.2,0c-0.8,0-2.1,0.1-2.7,0.6c-0.1,0.1-0.2,0.2-0.3,0.2c-0.7,0.6-0.3,0.5-1.3,0.5
	c-0.5,0-6.5,0-8.5,0C160.8,186.9,161,186.7,161,185.7z M252,179.8c1.6-0.1,2-2,2-3.1v-60.3c0-2.3,0.1-3.7-2.5-3.8h-2.6
	c-3,0-2.7,1.8-2.7,4c0,0.7,0,1.6,0,2.2c0,0.9-0.1,1.6-1,1.6c-0.9,0-0.7-0.9-0.6-1.5c0-0.3,0-0.6,0-0.8c0-0.7-0.5-1.5-0.9-1.9
	c-0.1-0.1-0.1-0.1-0.2-0.2c-0.4-0.4-0.4-1.2-0.4-1.8c0-0.2,0-0.3,0-0.5c0-0.8-0.1-1.1,0.6-1.7c0.1-0.1,0.1-0.1,0.2-0.2
	c0.8-0.8,0.7-1.4,0.7-2.5c0-1.2-0.8-1.2-1.7-1.2c-0.2,0-0.6,0-0.8,0c-1,0-1.1-0.7-1.5-1.4c-0.6-1.2-1.3,0.3-1.5,0.7
	c-0.3,0.8-0.2,0.6-1.3,0.7c-0.4,0-0.9,0-1,0c-1,0-1.1,0.7-1.2,1.5c0,0,0,0.1,0,0.1c0,1,0.2,1.3,0.8,2.1c0,0,0,0,0,0
	c0.5,0.6,0.5,0.6,0.6,1.3c0,0.4,0,0.9,0.1,1.1c0,0.8,0.1,1.2-0.9,1.2c-0.5,0-57.9,0-65.7,0h-0.1c-0.6,0-1-0.2-1.4-0.6
	c-0.1-0.1-0.1-0.1-0.2-0.2c-0.3-0.4-0.8-0.5-1.2-0.6c-1,0-1.3,0.5-1.8,1.3c-0.1,0.1-0.1,0.2-0.1,0.2c-0.1,0.1-0.2,0.2-0.4,0.3
	c-0.6,0.2-1,0.5-1.3,1c-0.1,0.2-0.2,0.4-0.2,0.6c0,0.2,0.2,0.8-0.8,1.4c-0.5,0.3-0.8,0.8-0.9,1.4v6.4c0,0.4-0.5,0.8-0.9,0.8
	c-0.2,0-2.1,0-2.9,0.1c-1.1,0-1.7,0.8-1.8,1.9v0.6c-0.1,1.3,0.8,2.1,2,2.2h2.3c1.3,0,1.3,0.2,1.3,1.4v21c0,1.3,0.8,2.5,2.1,2.6
	c-0.6-0.1,1.3,0.1,1.4,0.1c0.6,0,0.6,1.6,0.7,2c0.2,1.6-0.3,2.6,0.8,3.8c0.7,0.7,0.5,0.9,0.5,2v5c0.1,0.5,0.7,0.9,1.2,0.8
	c0.3,0,0.5-0.2,0.6-0.3c0.2-0.3,0.3-0.5,0.3-0.9l0,0v-4.7c0-0.6,0.1-1.5,0.5-1.9c0.1-0.1,0.1-0.1,0.2-0.2c0.6-0.6,0.6-1.2,0.6-2
	c0-0.7,0-1.7,0-2.3c0-0.8,0.1-1.2,1-1.3c0,0,0.1,0,0.1,0c1.4-0.1,2.6-0.8,3.5-1.9l0,0c1.8-2.4,4.4-6,5.6-7.5c0.8-1,1.8-1.6,3.1-1.6
	c9.5,0,37.2,0,40.3,0c1.5,0,1.6,0.2,1.6,1.1c-0.1,3.3-0.3,8-1.5,11.1c-0.7,1.7-1.7,3.3-3.1,4.8c-3.6,3.8-3.8,6.4-4.2,10.1
	c-0.6,5.7,0.5,6.5,4.7,6.5C231.3,179.9,251.7,179.9,252,179.8z M224.6,162.5c1-1.4,1.7-2.9,2.2-4.4c1-3.3,1.4-7.3,1.4-10.6
	c0-0.6,0-1.3,0-1.6c0-1.8-1.5-1.6,0.9-2.2c3-0.8,3-1.9,4.6-4.6c0.4-0.7,0.3-0.4,1.1,0.2c0.9,0.7,2.8,1.5,3.6,1.6
	c2.3,0.2,4.7,0,6.1-2.1c1.2-1.8,0.9-3.8-0.9-5.4c-1.6-1.4-0.9,0.7-0.7,1c0.4,0.8,0.4,1.8-0.1,2.6c-1.7,2.6-5.4,0.8-7-0.6
	c-0.5-0.4-5.6-5.3-6.8-6.3c-1.3-1-1.2-0.6-0.5-1.9c0-0.1,0.1-0.2,0.2-0.4c0.7-1.3,0.5-3.5-1-4.5c-0.7-0.5-1.4-1.1,0.1-1.1
	c0.5,0,12.2,0,15.6,0.1c2.5,0,4.8,0.3,4.8-3.2v-3c0-1.3,0.1-1.5,1.4-1.6h1.2c1.4,0,1.8,0.6,1.8,1.5v59.4c0,1.4,0.3,2.4-1.5,2.6
	c-0.7,0.1-29.3,0-29.5,0c-0.3,0-0.5,0-0.7,0c-1.7-0.1-1.2-3.5-1.1-4.9c0.4-4.6,0.5-4.8,3.5-8.6C223.5,164,224,163.3,224.6,162.5z
	 M244.5,171.6c0.4-0.5,0.7-0.8,1.3-1.4c0.9-0.9,2.8-1.3,3.5,0.3c0.5,1.1-0.2,2.4-1,3.1c-0.3,0.2-0.4,0.2-0.5,0.7
	c-0.2,0.8,0.5,0.9,1.4,0.3c1.4-1,2.1-2.8,1.7-4.5c-0.5-1.8-2.1-2.3-2.2-2.3c-0.4,0-1.1-0.1-1.4-0.1c-1.1-0.1-1.1-0.2-1.1-1.4
	c0-0.3,0-0.6,0-0.7c-0.1-1.4-1.2-3.8-2.5-4.7c-1.6-1.2-4.5-1-5.6,0.6c-0.8,1.1-0.9,3,0.4,3.9c0.8,0.6,2.3,1.2,3,0.1
	c0.4-0.7,0.4-1.1-0.4-1c-0.5,0.1-1.5,0.3-1.9-0.5c-0.4-0.9,0.1-2.1,1.3-2.3c2.7-0.4,3.5,2.4,3.5,4.3c0.1,2.6-0.6,5.3-3.1,6.7
	c-0.8,0.5-2.6,1.3-2.9,1.3c-0.8,0-0.8-0.4-0.3-1c0.3-0.4,0.6-0.9,0.8-1.4c0.4-1.6-0.4-4.3-2.6-4.7c-0.1,0-0.3,0-0.4-0.1
	c-0.9-0.1-1,1-0.1,1.2c0.7,0.2,1.1,0.7,1.2,1.4c0.2,1,0.1,2-1.1,2.5c-1.2,0.5-3.1,0.2-3.6-1.4c-0.7-2.2-0.2-4.6,1-6.4
	c0.7-1.1,1.7-2.4,2.5-3.2c0.1-0.1,0.1-0.1,0.2-0.2c1.4-1.4,3.5-3.9,4.8-5.5c5-5.9,10.2-14.3,9.7-21.5c-0.2-3.3-1.3-6.8-4.2-8.9
	c-1.8-1.3-4.7-1.7-6.5-0.5c-1.4,0.9-2.8,2.5-1.9,4.1c0.5,0.9,2,1.5,2.9,0.6c0.6-0.6,0.6-1,0.4-1.6c-0.4-1.5-0.3-1.9,1.3-1.9
	c6,1,5.8,7.1,5.4,10.2c-0.7,5.4-3.3,11.1-6.8,15.5c-0.2,0.2-0.4,0.5-0.6,0.7c-1.4,1.6-1.2-0.4-1.7-1.3c-0.1-0.1-0.3-0.4-0.4-0.6
	c-1.7-2.3-5.9-2.5-7.6-0.3c-0.9,1.2-1.3,2.7-0.3,3.9c0.4,0.5,0.8,0.7,0.8-0.7c0-0.9-0.1-1.2,0.6-1.9c1.6-1.5,4.9-1.3,5.4,1.6
	c0.5,2.9-0.6,3.8-2.5,5.8c-1.5,1.6-2.9,3.6-4,5.5c-0.1,0.2-0.2,0.3-0.3,0.5c-1.3,2.5-1.2,4-1,7c0,0.4,0.1,0.8,0.1,1.5
	c0,1.2-0.3,2.1-1.6,2.2c-1.2,0-1.7-0.4-2.6-1.7c-0.2-0.3-1-1-0.9,0.4c0.1,0.9,0.7,2.1,1.5,2.6c1.3,0.8,3.7,1,4.8-0.8
	c0.1-0.1,0.7-1.5,0.9-1.6c0.3-0.2,0.6,0.2,1.1,0.5C236.8,178,242.4,174.2,244.5,171.6z M164.9,132.1h3c1,0,1.8-0.9,1.8-1.9
	c0,0,0,0,0,0c0,0,0,0,0,0c0-0.3,0-0.6,0-0.8l0-0.3c0-0.9-0.8-1.6-1.7-1.7c-0.7,0-2.8,0-3.1,0c-0.5,0-0.9-0.4-0.9-0.9v-5.2
	c0-0.5,0.4-0.9,0.8-0.9c0.3,0,7.5,0,8.7,0c1,0,1,0.3,1.1,1.2c0.4,5.2,3,9.6,9,9.5c2.6,0,6.7-1.6,9-2.4c9.7-3.5,17.7-6.3,29.6-6.5
	c0.3,0,0.5,0,0.7,0c0.8,0,0.7,0.3,0.3,0.8c-0.2,0.3-0.5,0.6-0.8,1c-0.5,0.7-0.1,1.9,0.6,1.1c0.8-0.9,2-1.3,3.1-0.6
	c0.1,0.1,0.3,0.2,0.4,0.3c0.6,0.6,0.4,1.9-0.3,2.4c-0.4,0.3-0.9,0.4-1.5,0.4c-0.8,0-2.6-0.2-3.3-0.6c-1.8-0.9-7-0.7-9.2-0.4
	c-5.5,0.7-10.7,3.4-15.4,6.2c-3.7,2.2-11.9,5.2-18,5.4c-2.1,0.1-5.2-0.2-6.6-1.8c-0.6-0.8-1-2.2,0.1-2.9c0.7-0.5,2.2-0.3,2.8-0.2
	c0.6,0.1,1,0.2,0.5-0.8c-0.5-1.1-3.1-0.9-3.7-0.8c-1.1,0.2-2.1,1-2.5,2.1c-0.6,1.4-0.2,3,0.6,4c0.4,0.5,0.9,0.9,0.1,1.4
	c-0.4,0.2-1.1,0.6-1.1,0.6c-1.6,0.9-2.4,2.5-2.5,4.3c0,1.9,1.3,3.6,3.2,3.9c1.8,0.3,4.4-0.6,4.3-2.9c0-0.4-0.1-1-0.5-0.9
	c-0.2,0.1-0.3,0.3-0.4,0.5c-0.7,1.4-0.7,1.8-2.4,1.7c-2,0-2.5-2.6-1.6-3.9c0.8-1.3,4-2.1,5.1-2.2c0.6-0.1,1.1-0.2,1.6-0.2
	c0.1,0,0.2,0,0.4,0c3.1,0,8.5-0.6,11.6-1.3c0,0,0,0,0,0c0.7-0.2,0.6-0.3,1.1-0.3c0.9,0,1,0.3,0.9,0.8c-0.3,1.7,1.8,2.2,2.9,2.2
	c1.5,0.1,3.1-0.9,4.2-2.2c0.3-0.3,0.5-0.6,0.8-0.1c0.9,1.5,2.5,2.6,4.5,2.3c2.4-0.4,4.2-2.6,3.5-5.1c-0.2-0.7-0.8-0.9-1,0.1
	c-0.3,1.8-1,3-3,2.8c-2.2-0.2-2.4-2.9-1.5-4.3c1.6-2.6,7.2-4.8,10-5.3c0.3-0.1,1.9-0.2,1.1,0.7c-0.3,0.3-0.5,0.7-0.7,1
	c-1.5,3.4,1.9,6.7,5,6.3c2.6-0.3,4.2-2.1,3.9-4.7c-0.1-1.1-0.8-1.3-1.1-0.3c-0.3,1.2-0.1,1.1-0.8,2c-1,1.2-3.1,1.4-4.1,0.3
	c-0.9-1-0.5-3.2,0.4-4c1.5-1.4,4.9-1.6,6.9-1.3c2.9,0.4,6.8,2.8,8.7,5c0.1,0.1,0.1,0.2,0.2,0.2c2,2.6,1.5,6.5-2.5,6.7
	c-3.4-0.2-4.7-2.1-4.6-4.5c0-0.1,0.4-1.5-0.1-1.7c-0.3-0.1-0.7,0.4-1,0.7c-1.9,3.5,0.3,5.8,2,7c-0.1,0,0.7,0.3,1,0.5
	c1.7,0.9-1.4,0.9-1.3,0.9c-0.5,0-32.6,0-38,0l-0.4,0c-2.2,0-4.1,1-5.4,2.8c-0.8,1.1-2.9,3.9-4.7,6l-1,1.2c-0.6,0.7-1.4,1-2.3,1.1
	c-1.8,0-5.3,0-6.3,0c-1.1,0-1.1-0.9-1.1-1.7v-20.2C163.9,131.9,164.6,132.1,164.9,132.1z M261.3,138.5c0.1,0,0.3,0,0.4,0
	c1.1,0,1.7-0.8,1.7-1.8v-6.1c0-1.9,0.2-3.3-2-3.4c-0.8,0-0.8-0.2-0.8-1v-1.9v-1c0-0.9-0.7-1.7-1.7-1.7h-0.1h-2.5
	c-0.9,0-1.7,0.9-1.7,1.8v18.4c0,1,0.1,2.3,1.9,2.4c0.6,0,1.5,0,2,0c1.3,0,2-0.8,2-2.1v-2C260.5,139.5,260.5,138.6,261.3,138.5z
	 M256.4,124.2c0-0.4,0.3-0.7,0.6-0.7c0.2,0,0.7,0,0.8,0c0.5,0,0.9,0.4,0.9,0.9l0,16.8c0,0.8-0.2,1.1-0.7,1.2c-0.2,0-0.4,0-0.6,0
	c-0.7,0-1-0.4-1-1.2L256.4,124.2z M190.8,139.3c-1-1.1,0.3-1.7,1.3-2c1.9-0.6,2-0.7,4-1.6c0.2-0.1,1.5-0.8,1.1,0.2
	c-0.3,0.8-1.5,2.3-2.5,3C193.7,139.6,191.7,140.2,190.8,139.3z M260.5,129.7v-0.1c0-0.2,0.3-0.4,0.5-0.4c0.2,0,0.5,0.2,0.5,0.4v6.4
	c0,0.3-0.2,0.5-0.4,0.5c-0.3,0-0.6-0.2-0.6-0.5V129.7z M174.4,118.6c-0.2,0-4-0.1-4.2-0.1c-0.4,0-0.7-0.3-0.7-0.7
	c0-0.4,0.3-0.7,0.7-0.7c5.1,0,52.4,0,63.1,0c1.4,0,2.2-0.1,2.3,1.1c0,0.5,0.1,1.1,0.1,1.2c0.1,1.1-0.3,0.9-1.2,1
	c-1.2,0-2.7,0-3.6,0.1c-3.3,0-6.1,0-9.1,0c-12,0.2-19.7,3.2-29.5,6.7c-1.8,0.6-6.2,2.1-8.6,2.3c-5,0.4-6.9-3.7-7.2-7.7
	C176.3,120.8,176.2,118.6,174.4,118.6z M242.1,117h-3.9c-0.4,0-0.8,0.3-0.8,0.8c0,0.4,0.3,0.8,0.8,0.8h3.9c0.4,0,0.8-0.3,0.8-0.8
	C242.8,117.3,242.5,117,242.1,117z M242.3,109.1h-4.5c-0.5,0-0.9,0.5-0.9,1.1s0.4,1.1,0.9,1.1h4.5c0.5,0,0.9-0.5,0.9-1.1
	S242.8,109.1,242.3,109.1z M165.7,116.8c-0.4,0-0.7,0.5-0.7,1.2s0.3,1.2,0.7,1.2c0.4,0,0.7-0.5,0.7-1.2S166.1,116.8,165.7,116.8z
	 M167.2,129.4h-8.1c-0.2,0-0.4,0.2-0.4,0.4c0,0.2,0.2,0.4,0.4,0.4h8.1c0.2,0,0.4-0.2,0.4-0.4C167.6,129.6,167.5,129.4,167.2,129.4z
	 M168.9,157.4c-0.4,0-0.8,0.6-0.8,2.1s0.4,2.7,0.8,2.7c0.4,0,0.8-1.2,0.8-2.7S169.3,157.4,168.9,157.4z M43.7,310.5l-1.4-3.5h-5.7
	l-0.8,2.1c-0.2,0.5-0.3,1.1-0.3,1.6c0,0.5,0.2,1,0.5,1.4c0.3,0.4,0.8,0.6,1.4,0.7v0.7h-5.6v-0.7c1.2-0.2,2.3-1.3,3-3.2l4.2-10.7
	c-0.2-0.4-0.4-0.6-0.7-0.8c-0.2-0.1-0.6-0.2-1.1-0.3v-0.6l2.9-1h1.1l5.6,14.3c0.3,0.8,0.6,1.3,1,1.6c0.3,0.3,0.8,0.5,1.5,0.6v0.7
	h-7.2v-0.7c0.6-0.1,1.1-0.2,1.4-0.3c0.3-0.1,0.5-0.4,0.5-0.7C44.1,311.4,44,311,43.7,310.5z M37,306.3h5.1l-2.6-6.5L37,306.3z
	 M44.8,310.1l-4.3-10.9c-0.2-0.5-0.4-0.9-0.7-1.2c-0.2-0.2-0.5-0.3-0.9-0.3c-0.2,0-0.4,0-0.6,0c0.4,0.2,0.7,0.4,0.9,0.6
	s0.4,0.6,0.6,1.1l4.3,10.9c0.3,0.6,0.4,1.1,0.4,1.5c0,0.2,0,0.4-0.1,0.5c-0.1,0.1-0.3,0.3-0.5,0.5h0.3c0.4,0,0.7-0.1,0.9-0.3
	c0.2-0.2,0.3-0.4,0.3-0.7C45.3,311.4,45.1,310.8,44.8,310.1z M33.2,312.8h2.3c-0.5-0.4-0.8-0.9-0.8-1.5c0-0.2,0-0.3,0-0.4
	c-0.2,0.4-0.4,0.7-0.7,1C33.9,312.2,33.6,312.5,33.2,312.8z M64.1,309.3l5.3-12.9h5.2v0.7c-0.8,0-1.4,0.1-1.7,0.3
	c-0.3,0.2-0.5,0.5-0.6,0.9c-0.1,0.4-0.1,1.1-0.1,2.1v10.4c0,0.5,0.1,0.9,0.2,1.2c0.1,0.3,0.4,0.5,0.7,0.6c0.3,0.1,0.8,0.2,1.5,0.2
	v0.7h-7.8v-0.7c0.8,0,1.3-0.1,1.7-0.3c0.3-0.2,0.6-0.4,0.6-0.7c0.1-0.3,0.1-0.8,0.1-1.5v-11.6l-6,14.9h-0.7l-5.9-14.4v9.9
	c0,1.1,0.2,2,0.6,2.6c0.4,0.6,1.1,1,2.1,1.3v0.7h-6.1v-0.7c0.9-0.1,1.5-0.4,2-1c0.5-0.6,0.7-1.4,0.7-2.5v-11.2
	c-0.3-0.4-0.7-0.6-1.2-0.8c-0.5-0.2-1-0.3-1.5-0.2v-0.7h5.5L64.1,309.3z M70.3,310.7V299c0-1,0.1-1.6,0.2-1.9
	c-0.3,0-0.6,0.1-0.7,0.3c-0.1,0.2-0.2,0.4-0.3,0.7c0,0.3,0,0.7,0,1.3V311c0,0.6-0.1,1-0.2,1.2c-0.1,0.2-0.4,0.4-0.7,0.6h0.4
	c0.6,0,0.9-0.2,1-0.5C70.3,312,70.3,311.5,70.3,310.7z M55.5,297.1H55c0.5,0.2,0.9,0.5,1.2,0.8c0.3,0.3,0.6,0.9,0.9,1.6l5.6,13.3
	c0.2-0.3,0.3-0.6,0.3-0.8c0-0.2-0.1-0.5-0.3-1l-4.8-11.7c-0.3-0.8-0.6-1.3-0.9-1.7C56.6,297.3,56.1,297.1,55.5,297.1z M54.6,312.8
	h2.5c-0.3-0.2-0.5-0.4-0.7-0.6c-0.2-0.3-0.3-0.6-0.4-0.9c-0.1,0.3-0.3,0.6-0.5,0.9C55.2,312.4,54.9,312.6,54.6,312.8z M79.9,307.3
	h0.8c0.4,1.3,1,2.3,1.6,3.2c0.6,0.9,1.3,1.5,2,1.9c0.7,0.4,1.5,0.6,2.3,0.6c1,0,1.9-0.3,2.6-0.9c0.7-0.6,1.1-1.4,1.1-2.4
	c0-0.9-0.2-1.6-0.7-2.1s-1-0.9-1.7-1.1c-0.7-0.2-1.5-0.4-2.6-0.6c-1.1-0.2-1.8-0.3-2.3-0.5c-0.7-0.2-1.3-0.6-1.8-1
	c-0.5-0.4-0.9-0.9-1.1-1.5c-0.3-0.6-0.4-1.2-0.4-1.9c0-0.6,0.1-1.3,0.3-1.9c0.2-0.6,0.5-1.1,1-1.6c0.4-0.5,0.9-0.8,1.5-1.1
	c0.6-0.3,1.2-0.4,2-0.4c0.5,0,1.2,0.1,1.9,0.2c0.8,0.1,1.3,0.2,1.7,0.2c0.4,0,0.8-0.1,1.2-0.3h0.9l0.5,5h-0.8
	c-0.8-1.5-1.6-2.6-2.5-3.4c-0.9-0.8-1.9-1.2-3-1.2c-0.6,0-1.1,0.1-1.6,0.4c-0.5,0.3-0.9,0.6-1.2,1.1c-0.3,0.5-0.5,1-0.5,1.6
	c0,0.8,0.3,1.4,0.8,1.8c0.5,0.4,1.4,0.7,2.4,1c1.1,0.2,2,0.4,2.9,0.6c0.8,0.2,1.5,0.3,2,0.6c0.9,0.5,1.6,1.1,2.1,1.9
	c0.5,0.8,0.8,1.7,0.8,2.7c0,1-0.2,1.9-0.7,2.7s-1.1,1.5-2,2c-0.8,0.5-1.8,0.8-2.8,0.8c-0.6,0-1,0-1.3-0.1c-0.3-0.1-0.8-0.3-1.5-0.5
	c-0.7-0.3-1.3-0.4-1.7-0.4c-0.6,0-1.2,0.2-1.5,0.7h-0.7V307.3z M89.4,299.5l-0.4-2.3c-0.3,0.1-0.5,0.1-0.8,0.1c-0.3,0-0.6,0-0.9-0.1
	c0.3,0.2,0.6,0.4,0.8,0.7c0.2,0.3,0.5,0.6,0.8,0.9C89.1,299.2,89.3,299.4,89.4,299.5z M80.3,309.6v3.2c0.2-0.3,0.4-0.5,0.6-0.6
	c0.2-0.1,0.5-0.1,0.9-0.1c-0.3-0.3-0.5-0.5-0.6-0.7c-0.1-0.1-0.3-0.4-0.4-0.7C80.7,310.5,80.5,310.1,80.3,309.6z M80.3,299.6
	c-0.1,0.6-0.2,1.1-0.2,1.5c0,0.4,0.1,0.9,0.2,1.3c0.1,0.4,0.4,0.8,0.6,1.2c0.3,0.4,0.6,0.7,1,0.9c0.5,0.3,1,0.5,1.6,0.7
	c0.6,0.1,1.4,0.3,2.5,0.5c1.1,0.2,1.9,0.4,2.3,0.5c0.8,0.3,1.4,0.7,1.8,1.3c0.4,0.6,0.6,1.3,0.6,2c0,0.6-0.2,1.2-0.5,1.8
	c0.7-0.7,1-1.5,1-2.4c0-0.9-0.2-1.7-0.7-2.2c-0.5-0.5-1.1-0.9-1.8-1.2s-1.7-0.5-3-0.7c-1.2-0.2-1.9-0.3-1.9-0.3
	c-1.1-0.3-2-0.8-2.6-1.5c-0.6-0.7-0.9-1.6-0.9-2.5c0-0.2,0-0.3,0-0.4C80.3,299.8,80.3,299.7,80.3,299.6z M97.4,296.4h15.3l0.9,4
	h-0.9c-0.6-1-1.3-1.8-1.9-2.3c-0.7-0.5-1.3-0.8-1.9-0.9c-0.6-0.1-1.4-0.2-2.3-0.2v13.7c0,0.5,0.1,0.9,0.3,1.2
	c0.2,0.3,0.4,0.5,0.8,0.6c0.4,0.1,0.9,0.2,1.6,0.2v0.7h-8.5v-0.7c0.7,0,1.2-0.1,1.6-0.2c0.4-0.1,0.7-0.3,0.8-0.6
	c0.2-0.3,0.3-0.8,0.3-1.4v-13.6c-0.9,0-1.6,0.1-2.3,0.3c-0.6,0.2-1.2,0.4-1.6,0.7c-0.4,0.3-0.8,0.6-1.1,0.9
	c-0.3,0.3-0.7,0.8-1.3,1.5h-0.7L97.4,296.4z M112.3,299l-0.5-1.9h-2.3c0.6,0.2,1.1,0.4,1.5,0.7C111.4,298.2,111.8,298.5,112.3,299z
	 M104.7,310.4v-11.9c0-0.5-0.1-0.8-0.2-1.1c-0.1-0.2-0.3-0.4-0.6-0.4v13.7c0,0.5-0.1,0.9-0.2,1.2c-0.1,0.3-0.3,0.6-0.7,0.8h0.3
	c0.6,0,1-0.2,1.1-0.6C104.6,311.9,104.7,311.3,104.7,310.4z M99.7,297.1h-2l-0.5,2.1c0.4-0.5,0.8-0.9,1.1-1.2
	C98.6,297.7,99.1,297.4,99.7,297.1z M123.2,305v5.3c0,0.6,0,1,0.1,1.4c0.1,0.3,0.2,0.6,0.5,0.7c0.2,0.2,0.5,0.3,1,0.3
	c0.4,0,1,0.1,1.7,0.1c0.9,0,1.7-0.1,2.4-0.4c0.7-0.3,1.4-0.7,2-1.2c0.6-0.5,1.3-1.2,2-2.1h1l-1.5,4.4h-14.9v-0.7
	c0.7,0,1.3-0.1,1.6-0.2c0.4-0.1,0.6-0.3,0.8-0.5c0.2-0.3,0.2-0.6,0.2-1.1v-11.9c0-0.6-0.1-1-0.2-1.2c-0.1-0.3-0.4-0.4-0.7-0.5
	c-0.3-0.1-0.9-0.2-1.7-0.2v-0.7h14.3l1.5,3.8h-0.9c-0.5-0.6-1-1.1-1.7-1.6c-0.7-0.5-1.4-0.9-2.3-1.2c-0.8-0.3-1.7-0.4-2.6-0.4
	c-0.7,0-1.3,0.1-1.7,0.2c-0.4,0.2-0.6,0.4-0.7,0.7c-0.1,0.3-0.2,0.7-0.2,1.1v5.3h2.4c2.1,0,3.2-1,3.2-2.9h0.8v6.4H129
	c-0.1-1-0.4-1.7-0.8-2.1c-0.5-0.4-1.1-0.7-2.1-0.7H123.2z M131.2,312.8l0.8-2.1c-0.5,0.5-0.9,0.9-1.3,1.2c-0.4,0.3-0.9,0.6-1.6,0.9
	H131.2z M128.7,305.8v-2.4c-0.3,0.5-0.9,0.9-1.7,1.2c0.4,0.1,0.8,0.3,1,0.4S128.5,305.5,128.7,305.8z M130.7,297.1h-2.2
	c0.6,0.2,1.1,0.4,1.6,0.7c0.5,0.3,1,0.6,1.5,1L130.7,297.1z M120.6,299.2v11.7c0,0.6-0.1,1-0.2,1.3c-0.1,0.3-0.3,0.5-0.6,0.7
	c0.7,0,1.1-0.2,1.3-0.5s0.3-0.9,0.3-1.7v-11.7c0-0.7-0.1-1.1-0.4-1.4c-0.2-0.2-0.6-0.3-1.2-0.4c0.3,0.2,0.5,0.4,0.6,0.6
	S120.6,298.6,120.6,299.2z M146.1,313.5h-8.4v-0.7c0.8,0,1.4-0.1,1.7-0.2c0.4-0.1,0.6-0.3,0.8-0.6c0.1-0.3,0.2-0.7,0.2-1.3v-11.3
	c0-0.6-0.1-1.1-0.2-1.4c-0.1-0.3-0.4-0.5-0.7-0.7c-0.4-0.1-1-0.2-1.8-0.2v-0.7h9.5c1.2,0,2.2,0.2,3.1,0.6c0.9,0.4,1.6,1,2,1.7
	c0.5,0.7,0.7,1.4,0.7,2.2c0,0.5-0.1,1-0.3,1.5c-0.2,0.5-0.5,0.9-0.9,1.3c-0.4,0.4-0.9,0.7-1.4,1c-0.6,0.3-1.2,0.5-1.9,0.6
	c0.6,0.6,1.2,1.3,2.1,2.4l1.2,1.4c0.1,0.1,0.1,0.2,0.2,0.3c0.1,0.1,0.2,0.2,0.4,0.4c0.4,0.5,0.7,0.8,1,1.2c0.3,0.3,0.5,0.6,0.8,0.8
	c0.3,0.2,0.5,0.4,0.8,0.6c0.2,0.1,0.5,0.3,0.8,0.3v0.7h-2.3c-0.5,0-1-0.1-1.5-0.3s-0.9-0.6-1.3-1c-0.4-0.4-0.9-1-1.4-1.7l-1.7-2.1
	c-0.8-1-1.4-1.7-1.7-2.1c-0.4-0.4-0.7-0.6-1-0.6h-1.3v5.1c0,0.5,0.1,0.9,0.2,1.2c0.1,0.3,0.4,0.5,0.8,0.6c0.2,0.1,0.5,0.1,0.9,0.2
	s0.6,0.1,0.8,0V313.5z M140.9,299.3v11.9c0,0.8-0.3,1.3-0.8,1.6c1.1,0,1.6-0.4,1.6-1.2v-12.2c0-0.6,0-1.1-0.1-1.4
	c-0.1-0.3-0.2-0.6-0.5-0.7c-0.2-0.2-0.6-0.2-1.1-0.2c0.4,0.2,0.7,0.4,0.8,0.7C140.8,298.1,140.9,298.6,140.9,299.3z M143.5,299.6
	v5.4h2c0.7,0,1.3-0.1,2-0.3s1.1-0.5,1.5-0.8c0.7-0.6,1-1.6,1-2.8c0-1.5-0.5-2.6-1.5-3.3c-0.4-0.2-0.7-0.4-1.1-0.5
	c-0.4-0.1-0.9-0.1-1.5-0.1c-0.6,0-1.1,0.1-1.4,0.2c-0.3,0.2-0.5,0.4-0.6,0.7C143.5,298.4,143.5,298.9,143.5,299.6z M146.6,305.7h-1
	c0.3,0.2,0.6,0.5,1,1c0.4,0.4,0.9,1,1.4,1.8c0.6,0.7,1.2,1.5,1.8,2.3c0.5,0.7,1,1.2,1.5,1.6c0.5,0.4,0.9,0.6,1.2,0.7
	c0.4,0.1,0.7,0.2,1.1,0.2c-0.5-0.2-1-0.6-1.4-1c-0.5-0.4-1-1-1.5-1.6c-0.5-0.6-1.1-1.3-1.6-2s-1.1-1.4-1.7-2
	c-0.1-0.1-0.2-0.2-0.3-0.4C147,305.9,146.8,305.8,146.6,305.7z M147.7,304.9c1.1-0.1,1.9-0.5,2.5-1.2c0.6-0.7,0.9-1.6,0.9-2.7
	c0-1.1-0.3-2-0.8-2.6c-0.5-0.7-1.2-1.1-2.2-1.2c0.7,0.4,1.3,0.9,1.6,1.5c0.4,0.6,0.5,1.5,0.5,2.5c0,1.1-0.2,1.9-0.6,2.5
	C149.2,304.2,148.5,304.6,147.7,304.9z M169.8,313.5h-9.6v-0.7c0.7,0,1.2-0.1,1.5-0.2c0.3-0.1,0.6-0.3,0.7-0.6
	c0.1-0.3,0.2-0.7,0.2-1.2v-12.1c0-0.6-0.2-1-0.6-1.2c-0.4-0.2-1-0.3-1.9-0.4v-0.7h10c1.3,0,2.5,0.2,3.6,0.6c1.1,0.4,2,1,2.8,1.8
	c0.8,0.8,1.4,1.7,1.8,2.8c0.4,1.1,0.6,2.2,0.6,3.4c0,1.2-0.2,2.3-0.7,3.3c-0.4,1-1.1,1.9-1.9,2.7c-0.8,0.8-1.8,1.3-3,1.8
	C172.4,313.3,171.2,313.5,169.8,313.5z M163.9,310.9v-11.2c0-1-0.1-1.6-0.3-2c-0.2-0.4-0.6-0.6-1.4-0.6c0.3,0.2,0.6,0.4,0.7,0.7
	s0.2,0.7,0.2,1.2v11.6c0,0.5,0,0.9-0.1,1.2c-0.1,0.3-0.1,0.5-0.3,0.6c-0.1,0.1-0.3,0.3-0.5,0.4c0.6,0,1-0.1,1.3-0.4
	C163.8,312.1,163.9,311.6,163.9,310.9z M165.7,300.6v9.7c0,0.7,0,1.2,0.1,1.5c0.1,0.3,0.3,0.6,0.7,0.7c0.4,0.2,0.9,0.2,1.8,0.2
	c0.9,0,1.7-0.1,2.4-0.3c0.7-0.2,1.4-0.5,2-0.9c0.7-0.5,1.3-1.1,1.7-1.7c0.4-0.6,0.7-1.3,0.9-2.1c0.2-0.8,0.3-1.7,0.3-2.6
	c0-2.9-0.8-5-2.5-6.5c-0.7-0.6-1.4-1-2.2-1.2c-0.8-0.2-1.8-0.4-2.9-0.4c-0.8,0-1.3,0.1-1.6,0.3c-0.3,0.2-0.5,0.5-0.6,1
	C165.8,298.8,165.7,299.5,165.7,300.6z M171.4,312.8c1-0.1,2-0.5,2.8-1.1c0.8-0.6,1.5-1.5,1.9-2.6c0.5-1.1,0.7-2.4,0.7-4
	c0-1.1-0.1-2.1-0.3-3c-0.2-0.9-0.6-1.7-1-2.4c-0.4-0.7-1-1.2-1.6-1.6c-0.4-0.3-0.8-0.4-1.2-0.6c-0.4-0.1-0.8-0.2-1.3-0.3
	c3.1,1.2,4.6,3.9,4.6,8.1c0,1.2-0.2,2.4-0.5,3.3c-0.3,1-0.8,1.8-1.5,2.5C173.3,311.8,172.4,312.4,171.4,312.8z M195,310.5l-1.4-3.5
	H188l-0.8,2.1c-0.2,0.5-0.3,1.1-0.3,1.6c0,0.5,0.2,1,0.5,1.4c0.3,0.4,0.8,0.6,1.4,0.7v0.7h-5.6v-0.7c1.2-0.2,2.3-1.3,3-3.2l4.2-10.7
	c-0.2-0.4-0.4-0.6-0.7-0.8c-0.2-0.1-0.6-0.2-1.1-0.3v-0.6l2.9-1h1.1l5.6,14.3c0.3,0.8,0.6,1.3,1,1.6c0.3,0.3,0.8,0.5,1.5,0.6v0.7
	h-7.2v-0.7c0.6-0.1,1.1-0.2,1.4-0.3c0.3-0.1,0.5-0.4,0.5-0.7C195.4,311.4,195.3,311,195,310.5z M188.3,306.3h5.1l-2.6-6.5
	L188.3,306.3z M196.1,310.1l-4.3-10.9c-0.2-0.5-0.4-0.9-0.7-1.2c-0.2-0.2-0.5-0.3-0.9-0.3c-0.2,0-0.4,0-0.6,0
	c0.4,0.2,0.7,0.4,0.9,0.6c0.2,0.3,0.4,0.6,0.6,1.1l4.3,10.9c0.3,0.6,0.4,1.1,0.4,1.5c0,0.2,0,0.4-0.1,0.5c-0.1,0.1-0.3,0.3-0.5,0.5
	h0.3c0.4,0,0.7-0.1,0.9-0.3c0.2-0.2,0.3-0.4,0.3-0.7C196.6,311.4,196.4,310.8,196.1,310.1z M184.5,312.8h2.3
	c-0.5-0.4-0.8-0.9-0.8-1.5c0-0.2,0-0.3,0-0.4c-0.2,0.4-0.4,0.7-0.7,1C185.2,312.2,184.9,312.5,184.5,312.8z M215.4,309.3l5.3-12.9
	h5.2v0.7c-0.8,0-1.4,0.1-1.7,0.3s-0.5,0.5-0.6,0.9c-0.1,0.4-0.1,1.1-0.1,2.1v10.4c0,0.5,0.1,0.9,0.2,1.2c0.1,0.3,0.4,0.5,0.7,0.6
	c0.3,0.1,0.8,0.2,1.5,0.2v0.7h-7.8v-0.7c0.8,0,1.3-0.1,1.7-0.3c0.3-0.2,0.6-0.4,0.6-0.7c0.1-0.3,0.1-0.8,0.1-1.5v-11.6l-6,14.9h-0.7
	l-5.9-14.4v9.9c0,1.1,0.2,2,0.6,2.6c0.4,0.6,1.1,1,2.1,1.3v0.7h-6.1v-0.7c0.9-0.1,1.5-0.4,2-1c0.5-0.6,0.7-1.4,0.7-2.5v-11.2
	c-0.3-0.4-0.7-0.6-1.2-0.8c-0.5-0.2-1-0.3-1.5-0.2v-0.7h5.5L215.4,309.3z M221.6,310.7V299c0-1,0.1-1.6,0.2-1.9
	c-0.3,0-0.6,0.1-0.7,0.3c-0.1,0.2-0.2,0.4-0.3,0.7c0,0.3,0,0.7,0,1.3V311c0,0.6-0.1,1-0.2,1.2c-0.1,0.2-0.4,0.4-0.7,0.6h0.4
	c0.6,0,0.9-0.2,1-0.5C221.5,312,221.6,311.5,221.6,310.7z M206.8,297.1h-0.4c0.5,0.2,0.9,0.5,1.2,0.8c0.3,0.3,0.6,0.9,0.9,1.6
	l5.6,13.3c0.2-0.3,0.3-0.6,0.3-0.8c0-0.2-0.1-0.5-0.3-1l-4.8-11.7c-0.3-0.8-0.6-1.3-0.9-1.7S207.4,297.1,206.8,297.1z M205.8,312.8
	h2.5c-0.3-0.2-0.5-0.4-0.7-0.6c-0.2-0.3-0.3-0.6-0.4-0.9c-0.1,0.3-0.3,0.6-0.5,0.9C206.5,312.4,206.2,312.6,205.8,312.8z
	 M254.5,296.2h1v5.3h-0.7c-0.4-0.8-0.8-1.5-1.2-2.1c-0.4-0.6-0.9-1.1-1.4-1.5s-1-0.7-1.5-0.9c-0.5-0.2-1.1-0.3-1.7-0.3
	c-0.8,0-1.6,0.2-2.3,0.6c-0.7,0.4-1.3,0.9-1.8,1.6c-0.5,0.7-0.9,1.5-1.1,2.5c-0.3,1-0.4,2.1-0.4,3.2c0,1.6,0.3,3,0.8,4.2
	c0.5,1.2,1.3,2.2,2.2,2.9s2,1,3.3,1c0.7,0,1.5-0.1,2.2-0.4c0.7-0.2,1.4-0.6,2-1.1c0.6-0.5,1.2-1.1,1.8-1.9l0.7,0.4
	c-0.9,1.3-2,2.3-3.3,3c-1.3,0.7-2.7,1-4.4,1c-1.3,0-2.5-0.2-3.6-0.7c-1.1-0.5-2-1.1-2.8-1.9c-0.8-0.8-1.4-1.7-1.8-2.8
	c-0.4-1.1-0.6-2.2-0.6-3.4c0-1.3,0.2-2.5,0.7-3.6c0.5-1.1,1.1-2.1,1.9-2.9c0.8-0.8,1.7-1.4,2.8-1.8c1.1-0.4,2.2-0.6,3.4-0.6
	c0.5,0,0.9,0,1.3,0.1c0.4,0.1,0.9,0.2,1.4,0.3c0.5,0.1,0.9,0.2,1.1,0.3s0.4,0.1,0.7,0.1C253.6,296.9,254.1,296.7,254.5,296.2z
	 M254,299.2l-0.1-2.1c-0.4,0.2-0.8,0.3-1.2,0.3c-0.2,0-0.4,0-0.6,0c0.4,0.3,0.8,0.6,1,0.9C253.5,298.6,253.8,298.9,254,299.2z
	 M246.1,296.7c-1.2,0.5-2.3,1-3.1,1.7c-0.5,0.4-0.9,0.8-1.2,1.3c-0.4,0.5-0.7,1-0.9,1.5c-0.2,0.5-0.4,1.1-0.6,1.8s-0.2,1.2-0.2,1.9
	c0,1.4,0.3,2.8,0.9,4s1.5,2.2,2.7,3.1c1.2,0.8,2.6,1.3,4.2,1.5c-1.1-0.3-2-0.7-2.9-1.2c-0.9-0.5-1.6-1.2-2.2-2
	c-0.6-0.8-1.1-1.6-1.4-2.5c-0.3-0.9-0.5-1.8-0.5-2.8c0-0.8,0.1-1.6,0.4-2.5c0.3-0.9,0.6-1.7,1.1-2.4c0.5-0.8,1.1-1.4,1.7-1.9
	C244.6,297.7,245.3,297.2,246.1,296.7z M260.6,304.9c0-0.7,0.1-1.4,0.2-2.1c0.1-0.7,0.3-1.3,0.6-1.9c0.3-0.6,0.6-1.1,1-1.7
	c0.4-0.5,0.8-1,1.3-1.4c0.5-0.4,1.1-0.8,1.7-1c0.6-0.3,1.3-0.5,2-0.6c0.7-0.1,1.5-0.2,2.3-0.2c1.4,0,2.6,0.2,3.7,0.7
	c1.1,0.5,2.1,1.1,2.9,1.9c0.8,0.8,1.4,1.7,1.8,2.8c0.4,1.1,0.6,2.2,0.6,3.3c0,1.3-0.2,2.4-0.7,3.5c-0.5,1.1-1.1,2-2,2.8
	s-1.8,1.4-3,1.9s-2.4,0.7-3.7,0.7c-1.2,0-2.4-0.2-3.5-0.7c-1.1-0.4-2-1.1-2.8-1.8c-0.8-0.8-1.4-1.7-1.8-2.8
	C260.8,307.4,260.6,306.2,260.6,304.9z M263.9,303.6c0,1.4,0.1,2.7,0.4,3.9c0.3,1.2,0.7,2.2,1.2,3c0.5,0.8,1.2,1.5,1.9,1.9
	c0.7,0.4,1.5,0.7,2.4,0.7c0.7,0,1.4-0.2,2.1-0.5c0.6-0.3,1.2-0.8,1.7-1.4c0.5-0.6,0.9-1.4,1.1-2.3c0.3-0.9,0.4-2,0.4-3.2
	c0-1.3-0.2-2.5-0.5-3.7c-0.3-1.1-0.7-2.1-1.3-2.9c-0.6-0.8-1.2-1.4-1.9-1.8s-1.6-0.6-2.4-0.6c-0.7,0-1.4,0.2-2.1,0.5
	s-1.2,0.8-1.6,1.4c-0.5,0.6-0.8,1.3-1.1,2.2C264,301.6,263.9,302.6,263.9,303.6z M265.1,297.5c-1.3,0.8-2.3,1.9-3,3.1
	c-0.7,1.3-1,2.7-1,4.3c0,1.3,0.2,2.5,0.7,3.6c0.5,1.1,1.1,2,2,2.8c0.9,0.8,2,1.4,3.3,1.8c-1.6-0.8-2.8-1.9-3.8-3.3
	c-0.9-1.4-1.4-3.1-1.4-5.2c0-1,0.1-1.9,0.4-2.8c0.2-0.8,0.6-1.6,1.1-2.3C263.7,298.9,264.3,298.2,265.1,297.5z M271.4,297
	c0.9,0.5,1.7,1.1,2.3,2c0.6,0.8,1.1,1.9,1.4,3c0.3,1.2,0.5,2.5,0.5,3.9c0,1.3-0.2,2.5-0.5,3.5c-0.4,1-0.9,1.9-1.6,2.6
	c0.7-0.5,1.2-1.1,1.6-1.7c0.4-0.6,0.7-1.3,0.9-2.1c0.2-0.8,0.3-1.7,0.3-2.7c0-1.4-0.2-2.8-0.6-4c-0.4-1.2-1-2.2-1.7-3
	C273.3,297.7,272.4,297.2,271.4,297z M285.8,308.3v-9.2c0-0.6-0.1-1-0.3-1.3c-0.2-0.3-0.4-0.4-0.8-0.5c-0.3-0.1-0.9-0.1-1.6-0.2
	v-0.7h8.2v0.7c-0.6,0-1.1,0.1-1.4,0.2c-0.3,0.1-0.6,0.2-0.7,0.5c-0.2,0.2-0.3,0.6-0.3,1.2v9.6c0,0.9,0.2,1.7,0.6,2.3
	c0.4,0.6,1,1.1,1.7,1.5c0.7,0.3,1.6,0.5,2.6,0.5c1,0,1.9-0.2,2.7-0.6c0.8-0.4,1.4-0.9,1.8-1.7c0.4-0.8,0.7-1.7,0.7-2.8v-5.6
	c0-1.3-0.1-2.2-0.3-3c-0.2-0.7-0.5-1.2-0.9-1.6c-0.4-0.3-1-0.5-1.8-0.6v-0.7h6.2v0.7c-0.7,0.1-1.2,0.3-1.6,0.7
	c-0.4,0.4-0.6,0.9-0.7,1.6c-0.1,0.7-0.2,1.5-0.2,2.4v6.2c0,0.9-0.2,1.6-0.5,2.3c-0.3,0.7-0.8,1.3-1.4,1.8c-0.6,0.5-1.3,0.9-2.2,1.1
	c-0.8,0.3-1.8,0.4-2.9,0.4c-2.6,0-4.5-0.7-5.7-2.2c-0.4-0.5-0.6-1-0.8-1.5C285.8,309.6,285.8,309,285.8,308.3z M287,308.3v-9.6
	c0-1.2-0.6-1.7-1.7-1.6c0.6,0.2,0.9,0.8,0.9,1.7v9.6c0,1.4,0.4,2.5,1.2,3.2c0.8,0.8,2,1.3,3.6,1.7c-0.6-0.3-1.1-0.5-1.6-0.8
	c-0.4-0.3-0.8-0.6-1.2-0.9c-0.4-0.4-0.7-0.8-0.9-1.4C287.1,309.7,287,309.1,287,308.3z M299.9,297.1h-2.5c0.7,0.3,1.2,1,1.4,1.9
	c0.1-0.5,0.2-0.8,0.4-1.1C299.3,297.6,299.6,297.3,299.9,297.1z M306.8,296.4h15.3l0.9,4h-0.9c-0.6-1-1.3-1.8-1.9-2.3
	c-0.7-0.5-1.3-0.8-1.9-0.9c-0.6-0.1-1.4-0.2-2.3-0.2v13.7c0,0.5,0.1,0.9,0.3,1.2c0.2,0.3,0.4,0.5,0.8,0.6c0.4,0.1,0.9,0.2,1.6,0.2
	v0.7h-8.5v-0.7c0.7,0,1.2-0.1,1.6-0.2c0.4-0.1,0.7-0.3,0.8-0.6c0.2-0.3,0.3-0.8,0.3-1.4v-13.6c-0.9,0-1.6,0.1-2.3,0.3
	c-0.6,0.2-1.2,0.4-1.6,0.7c-0.4,0.3-0.8,0.6-1.1,0.9c-0.3,0.3-0.7,0.8-1.3,1.5h-0.7L306.8,296.4z M321.6,299l-0.5-1.9h-2.3
	c0.6,0.2,1.1,0.4,1.5,0.7C320.7,298.2,321.2,298.5,321.6,299z M314,310.4v-11.9c0-0.5-0.1-0.8-0.2-1.1s-0.3-0.4-0.6-0.4v13.7
	c0,0.5-0.1,0.9-0.2,1.2s-0.3,0.6-0.7,0.8h0.3c0.6,0,1-0.2,1.1-0.6S314,311.3,314,310.4z M309,297.1h-2l-0.5,2.1
	c0.4-0.5,0.8-0.9,1.1-1.2C308,297.7,308.4,297.4,309,297.1z M329.6,308.3v-9.2c0-0.6-0.1-1-0.3-1.3c-0.2-0.3-0.4-0.4-0.8-0.5
	c-0.3-0.1-0.9-0.1-1.6-0.2v-0.7h8.2v0.7c-0.6,0-1.1,0.1-1.4,0.2c-0.3,0.1-0.6,0.2-0.7,0.5c-0.2,0.2-0.3,0.6-0.3,1.2v9.6
	c0,0.9,0.2,1.7,0.6,2.3c0.4,0.6,1,1.1,1.7,1.5c0.7,0.3,1.6,0.5,2.6,0.5c1,0,1.9-0.2,2.7-0.6c0.8-0.4,1.4-0.9,1.8-1.7
	c0.4-0.8,0.7-1.7,0.7-2.8v-5.6c0-1.3-0.1-2.2-0.3-3c-0.2-0.7-0.5-1.2-0.9-1.6c-0.4-0.3-1-0.5-1.8-0.6v-0.7h6.2v0.7
	c-0.7,0.1-1.2,0.3-1.6,0.7c-0.4,0.4-0.6,0.9-0.7,1.6c-0.1,0.7-0.2,1.5-0.2,2.4v6.2c0,0.9-0.2,1.6-0.5,2.3c-0.3,0.7-0.8,1.3-1.4,1.8
	c-0.6,0.5-1.3,0.9-2.2,1.1c-0.8,0.3-1.8,0.4-2.9,0.4c-2.6,0-4.5-0.7-5.7-2.2c-0.4-0.5-0.6-1-0.8-1.5
	C329.7,309.6,329.6,309,329.6,308.3z M330.8,308.3v-9.6c0-1.2-0.6-1.7-1.7-1.6c0.6,0.2,0.9,0.8,0.9,1.7v9.6c0,1.4,0.4,2.5,1.2,3.2
	c0.8,0.8,2,1.3,3.6,1.7c-0.6-0.3-1.1-0.5-1.6-0.8s-0.8-0.6-1.2-0.9c-0.4-0.4-0.7-0.8-0.9-1.4C330.9,309.7,330.8,309.1,330.8,308.3z
	 M343.7,297.1h-2.5c0.7,0.3,1.2,1,1.4,1.9c0.1-0.5,0.2-0.8,0.4-1.1C343.2,297.6,343.4,297.3,343.7,297.1z M358.3,313.5h-8.4v-0.7
	c0.8,0,1.4-0.1,1.7-0.2c0.4-0.1,0.6-0.3,0.8-0.6c0.1-0.3,0.2-0.7,0.2-1.3v-11.3c0-0.6-0.1-1.1-0.2-1.4c-0.1-0.3-0.4-0.5-0.7-0.7
	c-0.4-0.1-1-0.2-1.8-0.2v-0.7h9.5c1.2,0,2.2,0.2,3.1,0.6c0.9,0.4,1.6,1,2,1.7c0.5,0.7,0.7,1.4,0.7,2.2c0,0.5-0.1,1-0.3,1.5
	c-0.2,0.5-0.5,0.9-0.9,1.3c-0.4,0.4-0.9,0.7-1.4,1c-0.6,0.3-1.2,0.5-1.9,0.6c0.6,0.6,1.2,1.3,2.1,2.4l1.2,1.4
	c0.1,0.1,0.1,0.2,0.2,0.3c0.1,0.1,0.2,0.2,0.4,0.4c0.4,0.5,0.7,0.8,1,1.2c0.3,0.3,0.5,0.6,0.8,0.8c0.3,0.2,0.5,0.4,0.8,0.6
	c0.2,0.1,0.5,0.3,0.8,0.3v0.7h-2.3c-0.5,0-1-0.1-1.5-0.3s-0.9-0.6-1.3-1c-0.4-0.4-0.9-1-1.4-1.7l-1.7-2.1c-0.8-1-1.4-1.7-1.7-2.1
	c-0.4-0.4-0.7-0.6-1-0.6h-1.3v5.1c0,0.5,0.1,0.9,0.2,1.2c0.1,0.3,0.4,0.5,0.8,0.6c0.2,0.1,0.5,0.1,0.9,0.2c0.3,0,0.6,0.1,0.8,0
	V313.5z M353,299.3v11.9c0,0.8-0.3,1.3-0.8,1.6c1.1,0,1.6-0.4,1.6-1.2v-12.2c0-0.6,0-1.1-0.1-1.4c-0.1-0.3-0.2-0.6-0.5-0.7
	c-0.2-0.2-0.6-0.2-1.1-0.2c0.4,0.2,0.7,0.4,0.8,0.7C353,298.1,353,298.6,353,299.3z M355.6,299.6v5.4h2c0.7,0,1.3-0.1,2-0.3
	c0.6-0.2,1.1-0.5,1.5-0.8c0.7-0.6,1-1.6,1-2.8c0-1.5-0.5-2.6-1.5-3.3c-0.4-0.2-0.7-0.4-1.1-0.5c-0.4-0.1-0.9-0.1-1.5-0.1
	c-0.6,0-1.1,0.1-1.4,0.2c-0.3,0.2-0.5,0.4-0.6,0.7C355.7,298.4,355.6,298.9,355.6,299.6z M358.8,305.7h-1c0.3,0.2,0.6,0.5,1,1
	c0.4,0.4,0.9,1,1.4,1.8c0.6,0.7,1.2,1.5,1.8,2.3c0.5,0.7,1,1.2,1.5,1.6c0.5,0.4,0.9,0.6,1.2,0.7c0.4,0.1,0.7,0.2,1.1,0.2
	c-0.5-0.2-1-0.6-1.4-1c-0.5-0.4-1-1-1.5-1.6c-0.5-0.6-1.1-1.3-1.6-2c-0.6-0.7-1.1-1.4-1.7-2c-0.1-0.1-0.2-0.2-0.3-0.4
	C359.2,305.9,359,305.8,358.8,305.7z M359.9,304.9c1.1-0.1,1.9-0.5,2.5-1.2c0.6-0.7,0.9-1.6,0.9-2.7c0-1.1-0.3-2-0.8-2.6
	c-0.5-0.7-1.2-1.1-2.2-1.2c0.7,0.4,1.3,0.9,1.6,1.5c0.4,0.6,0.5,1.5,0.5,2.5c0,1.1-0.2,1.9-0.6,2.5
	C361.3,304.2,360.7,304.6,359.9,304.9z M377.4,305v5.3c0,0.6,0,1,0.1,1.4c0.1,0.3,0.2,0.6,0.5,0.7c0.2,0.2,0.5,0.3,1,0.3
	s1,0.1,1.7,0.1c0.9,0,1.7-0.1,2.4-0.4s1.4-0.7,2-1.2c0.6-0.5,1.3-1.2,2-2.1h1l-1.5,4.4h-14.9v-0.7c0.7,0,1.3-0.1,1.6-0.2
	c0.4-0.1,0.6-0.3,0.8-0.5s0.2-0.6,0.2-1.1v-11.9c0-0.6-0.1-1-0.2-1.2c-0.1-0.3-0.4-0.4-0.7-0.5c-0.3-0.1-0.9-0.2-1.7-0.2v-0.7H386
	l1.5,3.8h-0.9c-0.5-0.6-1-1.1-1.7-1.6s-1.4-0.9-2.3-1.2c-0.8-0.3-1.7-0.4-2.6-0.4c-0.7,0-1.3,0.1-1.7,0.2c-0.4,0.2-0.6,0.4-0.7,0.7
	c-0.1,0.3-0.2,0.7-0.2,1.1v5.3h2.4c2.1,0,3.2-1,3.2-2.9h0.8v6.4h-0.8c-0.1-1-0.4-1.7-0.8-2.1c-0.5-0.4-1.1-0.7-2.1-0.7H377.4z
	 M385.4,312.8l0.8-2.1c-0.5,0.5-0.9,0.9-1.3,1.2c-0.4,0.3-0.9,0.6-1.6,0.9H385.4z M382.9,305.8v-2.4c-0.3,0.5-0.9,0.9-1.7,1.2
	c0.4,0.1,0.8,0.3,1,0.4C382.5,305.2,382.7,305.5,382.9,305.8z M384.9,297.1h-2.2c0.6,0.2,1.1,0.4,1.6,0.7c0.5,0.3,1,0.6,1.5,1
	L384.9,297.1z M374.8,299.2v11.7c0,0.6-0.1,1-0.2,1.3c-0.1,0.3-0.3,0.5-0.6,0.7c0.7,0,1.1-0.2,1.3-0.5s0.3-0.9,0.3-1.7v-11.7
	c0-0.7-0.1-1.1-0.3-1.4s-0.6-0.3-1.2-0.4c0.3,0.2,0.5,0.4,0.6,0.6S374.8,298.6,374.8,299.2z"/>
</svg>
